<svg width="331" height="312" viewBox="0 0 331 312" fill="none" xmlns="http://www.w3.org/2000/svg">
<path d="M93.4641 28.56L93.1241 28.24L101.924 18.86L102.244 19.16L93.4641 28.56ZM90.8641 30C90.8374 30 90.8241 29.96 90.8241 29.88C90.8241 29.8 90.8374 29.76 90.8641 29.76C91.3574 29.76 91.7307 29.7267 91.9841 29.66C92.2374 29.5933 92.4041 29.46 92.4841 29.26C92.5774 29.06 92.6241 28.7667 92.6241 28.38V19.12C92.6241 18.7333 92.5774 18.4467 92.4841 18.26C92.4041 18.06 92.2374 17.9267 91.9841 17.86C91.7441 17.78 91.3774 17.74 90.8841 17.74C90.8574 17.74 90.8441 17.7 90.8441 17.62C90.8441 17.54 90.8574 17.5 90.8841 17.5C91.2041 17.5 91.5641 17.5133 91.9641 17.54C92.3774 17.5533 92.8041 17.56 93.2441 17.56C93.7374 17.56 94.1841 17.5533 94.5841 17.54C94.9841 17.5133 95.3441 17.5 95.6641 17.5C95.6907 17.5 95.7041 17.54 95.7041 17.62C95.7041 17.7 95.6907 17.74 95.6641 17.74C95.1707 17.74 94.7974 17.78 94.5441 17.86C94.2907 17.94 94.1174 18.08 94.0241 18.28C93.9441 18.48 93.9041 18.7733 93.9041 19.16V28.38C93.9041 28.7667 93.9441 29.06 94.0241 29.26C94.1041 29.46 94.2707 29.5933 94.5241 29.66C94.7907 29.7267 95.1707 29.76 95.6641 29.76C95.6907 29.76 95.7041 29.8 95.7041 29.88C95.7041 29.96 95.6907 30 95.6641 30C95.3307 30 94.9641 29.9933 94.5641 29.98C94.1774 29.9667 93.7374 29.96 93.2441 29.96C92.8041 29.96 92.3774 29.9667 91.9641 29.98C91.5507 29.9933 91.1841 30 90.8641 30ZM99.5841 30C99.5574 30 99.5441 29.96 99.5441 29.88C99.5441 29.8 99.5574 29.76 99.5841 29.76C100.104 29.76 100.484 29.7267 100.724 29.66C100.977 29.5933 101.144 29.46 101.224 29.26C101.304 29.06 101.344 28.7667 101.344 28.38V19.16C101.344 18.7733 101.304 18.48 101.224 18.28C101.144 18.08 100.977 17.94 100.724 17.86C100.484 17.78 100.104 17.74 99.5841 17.74C99.5574 17.74 99.5441 17.7 99.5441 17.62C99.5441 17.54 99.5574 17.5 99.5841 17.5C99.9174 17.5 100.277 17.5133 100.664 17.54C101.064 17.5533 101.511 17.56 102.004 17.56C102.444 17.56 102.871 17.5533 103.284 17.54C103.697 17.5133 104.064 17.5 104.384 17.5C104.411 17.5 104.424 17.54 104.424 17.62C104.424 17.7 104.411 17.74 104.384 17.74C103.891 17.74 103.517 17.78 103.264 17.86C103.011 17.9267 102.844 18.06 102.764 18.26C102.684 18.4467 102.644 18.7333 102.644 19.12V28.38C102.644 28.7667 102.684 29.06 102.764 29.26C102.844 29.46 103.011 29.5933 103.264 29.66C103.517 29.7267 103.891 29.76 104.384 29.76C104.411 29.76 104.424 29.8 104.424 29.88C104.424 29.96 104.411 30 104.384 30C104.064 30 103.697 29.9933 103.284 29.98C102.871 29.9667 102.444 29.96 102.004 29.96C101.511 29.96 101.064 29.9667 100.664 29.98C100.277 29.9933 99.9174 30 99.5841 30ZM108.205 23.7V23.28H112.585V23.7H108.205ZM107.565 28.38V19.12C107.565 18.7333 107.519 18.4467 107.425 18.26C107.345 18.06 107.179 17.9267 106.925 17.86C106.685 17.78 106.319 17.74 105.825 17.74C105.799 17.74 105.785 17.7 105.785 17.62C105.785 17.54 105.799 17.5 105.825 17.5C106.145 17.5 106.505 17.5133 106.905 17.54C107.319 17.5533 107.745 17.56 108.185 17.56C108.679 17.56 109.125 17.5533 109.525 17.54C109.925 17.5133 110.285 17.5 110.605 17.5C110.632 17.5 110.645 17.54 110.645 17.62C110.645 17.7 110.632 17.74 110.605 17.74C110.112 17.74 109.739 17.78 109.485 17.86C109.232 17.94 109.059 18.08 108.965 18.28C108.885 18.48 108.845 18.7733 108.845 19.16V28.38C108.845 28.7667 108.885 29.06 108.965 29.26C109.045 29.46 109.212 29.5933 109.465 29.66C109.732 29.7267 110.112 29.76 110.605 29.76C110.632 29.76 110.645 29.8 110.645 29.88C110.645 29.96 110.632 30 110.605 30C110.272 30 109.905 29.9933 109.505 29.98C109.119 29.9667 108.679 29.96 108.185 29.96C107.745 29.96 107.319 29.9667 106.905 29.98C106.492 29.9933 106.125 30 105.805 30C105.779 30 105.765 29.96 105.765 29.88C105.765 29.8 105.779 29.76 105.805 29.76C106.299 29.76 106.672 29.7267 106.925 29.66C107.179 29.5933 107.345 29.46 107.425 29.26C107.519 29.06 107.565 28.7667 107.565 28.38ZM118.045 30.24C117.125 30.24 116.292 30.0733 115.545 29.74C114.799 29.3933 114.152 28.92 113.605 28.32C113.072 27.72 112.659 27.0333 112.365 26.26C112.085 25.4733 111.945 24.64 111.945 23.76C111.945 22.68 112.145 21.7333 112.545 20.92C112.959 20.1067 113.499 19.4333 114.165 18.9C114.845 18.3533 115.585 17.9467 116.385 17.68C117.185 17.4133 117.979 17.28 118.765 17.28C119.712 17.28 120.559 17.46 121.305 17.82C122.052 18.1667 122.685 18.64 123.205 19.24C123.739 19.84 124.145 20.52 124.425 21.28C124.705 22.04 124.845 22.82 124.845 23.62C124.845 24.5533 124.665 25.42 124.305 26.22C123.945 27.02 123.452 27.72 122.825 28.32C122.199 28.92 121.472 29.3933 120.645 29.74C119.832 30.0733 118.965 30.24 118.045 30.24ZM118.725 29.82C119.565 29.82 120.325 29.6067 121.005 29.18C121.699 28.74 122.245 28.1 122.645 27.26C123.059 26.42 123.265 25.3933 123.265 24.18C123.265 22.9267 123.039 21.82 122.585 20.86C122.145 19.8867 121.525 19.1267 120.725 18.58C119.925 18.02 118.972 17.74 117.865 17.74C116.452 17.74 115.359 18.22 114.585 19.18C113.812 20.1267 113.425 21.42 113.425 23.06C113.425 24.3133 113.645 25.4533 114.085 26.48C114.525 27.5067 115.145 28.32 115.945 28.92C116.745 29.52 117.672 29.82 118.725 29.82ZM126.304 30.24C126.024 30.24 125.791 30.18 125.604 30.06C125.417 29.94 125.324 29.7533 125.324 29.5C125.324 29.26 125.411 29.0933 125.584 29C125.757 28.9067 125.957 28.86 126.184 28.86C126.251 28.86 126.317 28.86 126.384 28.86C126.464 28.86 126.537 28.86 126.604 28.86C127.084 28.86 127.517 28.6667 127.904 28.28C128.291 27.88 128.631 27.3533 128.924 26.7C129.217 26.0333 129.464 25.2933 129.664 24.48C129.864 23.6533 130.011 22.8133 130.104 21.96C130.211 21.1067 130.264 20.2933 130.264 19.52C130.264 19.16 130.217 18.8467 130.124 18.58C130.031 18.3 129.844 18.0933 129.564 17.96C129.284 17.8133 128.857 17.74 128.284 17.74C128.244 17.74 128.224 17.7 128.224 17.62C128.224 17.54 128.244 17.5 128.284 17.5C128.364 17.5 128.591 17.5 128.964 17.5C129.337 17.5 129.804 17.5 130.364 17.5C130.924 17.5 131.524 17.5 132.164 17.5C132.817 17.5 133.464 17.5 134.104 17.5C134.757 17.5 135.357 17.5 135.904 17.5C136.451 17.5 136.897 17.5 137.244 17.5C137.591 17.5 137.791 17.5 137.844 17.5C137.884 17.5 137.904 17.54 137.904 17.62C137.904 17.7 137.884 17.74 137.844 17.74C137.351 17.74 136.977 17.78 136.724 17.86C136.471 17.9267 136.304 18.06 136.224 18.26C136.144 18.4467 136.104 18.7333 136.104 19.12V28.38C136.104 28.7667 136.144 29.06 136.224 29.26C136.304 29.46 136.471 29.5933 136.724 29.66C136.977 29.7267 137.351 29.76 137.844 29.76C137.884 29.76 137.904 29.8 137.904 29.88C137.904 29.96 137.884 30 137.844 30C137.537 30 137.177 29.9933 136.764 29.98C136.351 29.9667 135.924 29.96 135.484 29.96C135.017 29.96 134.577 29.9667 134.164 29.98C133.764 29.9933 133.404 30 133.084 30C133.044 30 133.024 29.96 133.024 29.88C133.024 29.8 133.044 29.76 133.084 29.76C133.591 29.76 133.964 29.7267 134.204 29.66C134.457 29.5933 134.624 29.46 134.704 29.26C134.784 29.06 134.824 28.7667 134.824 28.38V19.2C134.824 18.7867 134.797 18.4933 134.744 18.32C134.691 18.1467 134.551 18.0467 134.324 18.02C134.111 17.98 133.751 17.96 133.244 17.96H132.224C131.864 17.96 131.571 17.9933 131.344 18.06C131.131 18.1267 130.977 18.2733 130.884 18.5C130.791 18.7133 130.744 19.0533 130.744 19.52C130.744 20.0533 130.717 20.6867 130.664 21.42C130.611 22.1533 130.517 22.9267 130.384 23.74C130.251 24.54 130.077 25.3267 129.864 26.1C129.651 26.86 129.377 27.5533 129.044 28.18C128.724 28.8067 128.337 29.3067 127.884 29.68C127.431 30.0533 126.904 30.24 126.304 30.24ZM144.702 30.08C144.475 30.08 144.189 30.0667 143.842 30.04C143.509 30.0267 143.162 30.0133 142.802 30C142.442 29.9733 142.109 29.96 141.802 29.96C141.375 29.96 140.955 29.9667 140.542 29.98C140.142 29.9933 139.775 30 139.442 30C139.415 30 139.402 29.96 139.402 29.88C139.402 29.8 139.415 29.76 139.442 29.76C139.935 29.76 140.302 29.7267 140.542 29.66C140.795 29.5933 140.969 29.4667 141.062 29.28C141.155 29.08 141.202 28.78 141.202 28.38V19.12C141.202 18.72 141.155 18.4267 141.062 18.24C140.982 18.0533 140.822 17.9267 140.582 17.86C140.342 17.78 139.975 17.74 139.482 17.74C139.442 17.74 139.422 17.7 139.422 17.62C139.422 17.54 139.442 17.5 139.482 17.5C139.802 17.5 140.155 17.5133 140.542 17.54C140.929 17.5533 141.349 17.56 141.802 17.56C142.282 17.56 142.729 17.5533 143.142 17.54C143.555 17.5133 143.915 17.5 144.222 17.5C144.262 17.5 144.282 17.54 144.282 17.62C144.282 17.7 144.262 17.74 144.222 17.74C143.729 17.74 143.355 17.78 143.102 17.86C142.862 17.94 142.695 18.08 142.602 18.28C142.522 18.4667 142.482 18.76 142.482 19.16V28.38C142.482 28.66 142.522 28.9 142.602 29.1C142.695 29.3 142.869 29.4533 143.122 29.56C143.389 29.6667 143.782 29.72 144.302 29.72C145.395 29.72 146.175 29.4733 146.642 28.98C147.109 28.4733 147.342 27.7133 147.342 26.7C147.342 25.86 147.215 25.1933 146.962 24.7C146.709 24.2067 146.349 23.86 145.882 23.66C145.415 23.4467 144.862 23.34 144.222 23.34C143.849 23.34 143.469 23.3733 143.082 23.44C142.695 23.4933 142.315 23.5733 141.942 23.68L141.902 23.28C142.355 23.1733 142.815 23.0933 143.282 23.04C143.749 22.9733 144.229 22.94 144.722 22.94C145.495 22.94 146.182 23.0467 146.782 23.26C147.395 23.46 147.875 23.8 148.222 24.28C148.569 24.7467 148.742 25.3933 148.742 26.22C148.742 26.98 148.569 27.6533 148.222 28.24C147.889 28.8133 147.415 29.2667 146.802 29.6C146.202 29.92 145.502 30.08 144.702 30.08ZM158.929 30H158.641V13.2H158.929V30ZM170.277 17.112L170.349 14.304C170.861 13.904 171.533 13.592 172.365 13.368C173.213 13.128 174.021 13.016 174.789 13.032C175.509 13.032 176.173 13.136 176.781 13.344C177.405 13.536 177.933 13.8 178.365 14.136C178.797 14.472 179.165 14.864 179.469 15.312C179.789 15.76 179.997 16.24 180.093 16.752C180.189 17.264 180.221 17.792 180.189 18.336C180.157 18.864 180.005 19.392 179.733 19.92C179.461 20.448 179.117 20.944 178.701 21.408C178.285 21.856 177.733 22.272 177.045 22.656C176.373 23.04 175.605 23.344 174.741 23.568C174.021 23.744 173.381 23.96 172.821 24.216C172.261 24.456 171.813 24.72 171.477 25.008C171.141 25.28 170.861 25.56 170.637 25.848C170.413 26.12 170.253 26.416 170.157 26.736C170.061 27.04 169.997 27.304 169.965 27.528C169.933 27.736 169.917 27.968 169.917 28.224H177.933C178.557 28.224 179.069 28.08 179.469 27.792C179.885 27.504 180.133 27.144 180.213 26.712V30H169.581V28.224C169.581 27.824 169.597 27.44 169.629 27.072C169.677 26.688 169.797 26.208 169.989 25.632C170.181 25.056 170.437 24.544 170.757 24.096C171.077 23.632 171.541 23.192 172.149 22.776C172.773 22.344 173.501 22.032 174.333 21.84C176.301 21.312 177.597 20.296 178.221 18.792C178.749 17.56 178.701 16.376 178.077 15.24C177.453 14.104 176.485 13.472 175.173 13.344C175.045 13.328 174.917 13.32 174.789 13.32C174.213 13.32 173.677 13.432 173.181 13.656C172.685 13.88 172.277 14.152 171.957 14.472C171.637 14.776 171.349 15.12 171.093 15.504C170.837 15.888 170.645 16.208 170.517 16.464C170.405 16.72 170.325 16.936 170.277 17.112ZM187.247 13.752C188.351 13.256 189.583 13.008 190.943 13.008C192.303 13.008 193.535 13.256 194.639 13.752C195.743 14.248 196.631 14.896 197.303 15.696C197.991 16.496 198.519 17.416 198.887 18.456C199.255 19.48 199.439 20.528 199.439 21.6C199.439 22.672 199.255 23.728 198.887 24.768C198.519 25.792 197.991 26.704 197.303 27.504C196.631 28.304 195.743 28.952 194.639 29.448C193.535 29.944 192.303 30.192 190.943 30.192C189.583 30.192 188.351 29.944 187.247 29.448C186.143 28.952 185.247 28.304 184.559 27.504C183.887 26.704 183.367 25.792 182.999 24.768C182.647 23.728 182.471 22.672 182.471 21.6C182.471 20.528 182.647 19.48 182.999 18.456C183.367 17.416 183.887 16.496 184.559 15.696C185.247 14.896 186.143 14.248 187.247 13.752ZM190.943 13.32C189.871 13.32 188.903 13.56 188.039 14.04C187.175 14.504 186.471 15.128 185.927 15.912C185.399 16.68 184.991 17.56 184.703 18.552C184.415 19.544 184.271 20.56 184.271 21.6C184.271 22.64 184.415 23.656 184.703 24.648C184.991 25.64 185.399 26.528 185.927 27.312C186.471 28.08 187.175 28.704 188.039 29.184C188.903 29.648 189.871 29.88 190.943 29.88C191.903 29.88 192.783 29.696 193.583 29.328C194.383 28.96 195.039 28.456 195.551 27.816C196.079 27.176 196.519 26.448 196.871 25.632C197.239 24.8 197.463 23.928 197.543 23.016C197.623 22.104 197.623 21.192 197.543 20.28C197.463 19.352 197.239 18.472 196.871 17.64C196.519 16.808 196.079 16.072 195.551 15.432C195.039 14.792 194.383 14.28 193.583 13.896C192.783 13.512 191.903 13.32 190.943 13.32ZM202.105 17.112L202.177 14.304C202.689 13.904 203.361 13.592 204.193 13.368C205.041 13.128 205.849 13.016 206.617 13.032C207.337 13.032 208.001 13.136 208.609 13.344C209.233 13.536 209.761 13.8 210.193 14.136C210.625 14.472 210.993 14.864 211.297 15.312C211.617 15.76 211.825 16.24 211.921 16.752C212.017 17.264 212.049 17.792 212.017 18.336C211.985 18.864 211.833 19.392 211.561 19.92C211.289 20.448 210.945 20.944 210.529 21.408C210.113 21.856 209.561 22.272 208.873 22.656C208.201 23.04 207.433 23.344 206.569 23.568C205.849 23.744 205.209 23.96 204.649 24.216C204.089 24.456 203.641 24.72 203.305 25.008C202.969 25.28 202.689 25.56 202.465 25.848C202.241 26.12 202.081 26.416 201.985 26.736C201.889 27.04 201.825 27.304 201.793 27.528C201.761 27.736 201.745 27.968 201.745 28.224H209.761C210.385 28.224 210.897 28.08 211.297 27.792C211.713 27.504 211.961 27.144 212.041 26.712V30H201.409V28.224C201.409 27.824 201.425 27.44 201.457 27.072C201.505 26.688 201.625 26.208 201.817 25.632C202.009 25.056 202.265 24.544 202.585 24.096C202.905 23.632 203.369 23.192 203.977 22.776C204.601 22.344 205.329 22.032 206.161 21.84C208.129 21.312 209.425 20.296 210.049 18.792C210.577 17.56 210.529 16.376 209.905 15.24C209.281 14.104 208.313 13.472 207.001 13.344C206.873 13.328 206.745 13.32 206.617 13.32C206.041 13.32 205.505 13.432 205.009 13.656C204.513 13.88 204.105 14.152 203.785 14.472C203.465 14.776 203.177 15.12 202.921 15.504C202.665 15.888 202.473 16.208 202.345 16.464C202.233 16.72 202.153 16.936 202.105 17.112ZM220.495 29.784C221.311 29.784 222.023 29.592 222.631 29.208C223.255 28.808 223.711 28.288 223.999 27.648C224.303 27.008 224.511 26.304 224.623 25.536C224.751 24.768 224.727 23.992 224.551 23.208C224.391 22.408 224.143 21.672 223.807 21C223.471 20.328 222.991 19.752 222.367 19.272C221.759 18.792 221.079 18.496 220.327 18.384C218.951 18.176 217.639 18.64 216.391 19.776C216.119 20.704 215.967 21.648 215.935 22.608C215.903 23.568 215.983 24.472 216.175 25.32C216.367 26.168 216.647 26.928 217.015 27.6C217.399 28.272 217.887 28.808 218.479 29.208C219.087 29.592 219.759 29.784 220.495 29.784ZM220.519 30.096C218.167 30.112 216.415 29.192 215.263 27.336C214.239 25.688 213.919 23.736 214.303 21.48C214.703 19.08 215.775 17.112 217.519 15.576C219.391 13.944 221.695 13.12 224.431 13.104C222.319 13.328 220.599 14.008 219.271 15.144C217.959 16.28 217.031 17.696 216.487 19.392C217.607 18.368 218.951 17.872 220.519 17.904C221.751 17.936 222.823 18.264 223.735 18.888C224.663 19.496 225.343 20.248 225.775 21.144C226.207 22.04 226.431 23.008 226.447 24.048C226.463 25.088 226.271 26.056 225.871 26.952C225.471 27.832 224.799 28.576 223.855 29.184C222.927 29.776 221.815 30.08 220.519 30.096Z" fill="black"/>
<path d="M18.9866 78.3118C19.0147 78.3118 19.0287 78.3562 19.0287 78.4451C19.0287 78.534 19.0147 78.5785 18.9866 78.5785C18.6916 78.5785 18.3615 78.5711 17.9963 78.5562C17.6452 78.5414 17.28 78.534 16.9008 78.534C16.5496 78.534 16.2055 78.5414 15.8684 78.5562C15.5313 78.5711 15.2293 78.5785 14.9624 78.5785C14.9344 78.5785 14.9203 78.534 14.9203 78.4451C14.9203 78.3562 14.9344 78.3118 14.9624 78.3118C15.3557 78.3118 15.6086 78.2155 15.7209 78.0229C15.8333 77.8302 15.8895 77.4155 15.8895 76.7783V71.8001C15.8895 71.3557 15.8824 71.0445 15.8684 70.8667C15.8543 70.6741 15.7982 70.563 15.6998 70.5334C15.6156 70.4889 15.4681 70.4667 15.2574 70.4667H12.8345C12.6238 70.4667 12.4693 70.4889 12.371 70.5334C12.2867 70.5778 12.2305 70.6963 12.2024 70.889C12.1884 71.0668 12.1814 71.3853 12.1814 71.8446V76.7783C12.1814 77.4155 12.2305 77.8302 12.3289 78.0229C12.4412 78.2155 12.687 78.3118 13.0663 78.3118C13.1084 78.3118 13.1295 78.3562 13.1295 78.4451C13.1295 78.534 13.1084 78.5785 13.0663 78.5785C12.8134 78.5785 12.5255 78.5711 12.2024 78.5562C11.8794 78.5414 11.5563 78.534 11.2333 78.534C10.84 78.534 10.4537 78.5414 10.0745 78.5562C9.70932 78.5711 9.37222 78.5785 9.06321 78.5785C9.02107 78.5785 9 78.534 9 78.4451C9 78.3562 9.02107 78.3118 9.06321 78.3118C9.5548 78.3118 9.87084 78.2155 10.0113 78.0229C10.1518 77.8302 10.222 77.4155 10.222 76.7783V71.8001C10.222 71.1482 10.1518 70.7334 10.0113 70.5556C9.87084 70.363 9.56184 70.2667 9.08427 70.2667C9.04214 70.2667 9.02107 70.2222 9.02107 70.1333C9.02107 70.0444 9.04214 70 9.08427 70H18.9866C19.0147 70 19.0287 70.0444 19.0287 70.1333C19.0287 70.2222 19.0147 70.2667 18.9866 70.2667C18.509 70.2667 18.2 70.3704 18.0595 70.5778C17.9191 70.7852 17.8489 71.2075 17.8489 71.8446V76.7783C17.8489 77.4155 17.9191 77.8302 18.0595 78.0229C18.2 78.2155 18.509 78.3118 18.9866 78.3118ZM22.4451 74.5559V74.0225H28.1126V74.5559H22.4451ZM21.497 76.7783V71.8001C21.497 71.1482 21.4268 70.7334 21.2863 70.5556C21.1458 70.363 20.8369 70.2667 20.3593 70.2667C20.3172 70.2667 20.2961 70.2222 20.2961 70.1333C20.2961 70.0444 20.3172 70 20.3593 70C20.6543 70 20.9844 70.0074 21.3496 70.0222C21.7288 70.037 22.115 70.0444 22.5083 70.0444C22.8876 70.0444 23.2598 70.037 23.625 70.0222C23.9901 70.0074 24.3133 70 24.5941 70C24.6222 70 24.6363 70.0444 24.6363 70.1333C24.6363 70.2222 24.6222 70.2667 24.5941 70.2667C24.1165 70.2667 23.8076 70.3704 23.6671 70.5778C23.5266 70.7852 23.4564 71.2075 23.4564 71.8446V76.7783C23.4564 77.4155 23.5266 77.8302 23.6671 78.0229C23.8076 78.2155 24.1165 78.3118 24.5941 78.3118C24.6222 78.3118 24.6363 78.3562 24.6363 78.4451C24.6363 78.534 24.6222 78.5785 24.5941 78.5785C24.2992 78.5785 23.969 78.5711 23.6039 78.5562C23.2527 78.5414 22.8876 78.534 22.5083 78.534C22.115 78.534 21.7288 78.5414 21.3496 78.5562C20.9844 78.5711 20.6473 78.5785 20.3383 78.5785C20.2961 78.5785 20.275 78.534 20.275 78.4451C20.275 78.3562 20.2961 78.3118 20.3383 78.3118C20.8298 78.3118 21.1458 78.2155 21.2863 78.0229C21.4268 77.8302 21.497 77.4155 21.497 76.7783ZM27.1645 76.7783V71.8001C27.1645 71.1482 27.0943 70.7334 26.9538 70.5556C26.8133 70.363 26.5044 70.2667 26.0268 70.2667C25.9847 70.2667 25.9636 70.2222 25.9636 70.1333C25.9636 70.0444 25.9847 70 26.0268 70C26.3218 70 26.6519 70.0074 27.017 70.0222C27.3963 70.037 27.7825 70.0444 28.1758 70.0444C28.555 70.0444 28.9273 70.037 29.2925 70.0222C29.6576 70.0074 29.9807 70 30.2616 70C30.2897 70 30.3037 70.0444 30.3037 70.1333C30.3037 70.2222 30.2897 70.2667 30.2616 70.2667C29.784 70.2667 29.4751 70.3704 29.3346 70.5778C29.1941 70.7852 29.1239 71.2075 29.1239 71.8446V76.7783C29.1239 77.4155 29.1941 77.8302 29.3346 78.0229C29.4751 78.2155 29.784 78.3118 30.2616 78.3118C30.2897 78.3118 30.3037 78.3562 30.3037 78.4451C30.3037 78.534 30.2897 78.5785 30.2616 78.5785C29.9667 78.5785 29.6365 78.5711 29.2714 78.5562C28.9202 78.5414 28.555 78.534 28.1758 78.534C27.7825 78.534 27.3963 78.5414 27.017 78.5562C26.6378 78.5711 26.3007 78.5785 26.0057 78.5785C25.9636 78.5785 25.9425 78.534 25.9425 78.4451C25.9425 78.3562 25.9636 78.3118 26.0057 78.3118C26.4973 78.3118 26.8133 78.2155 26.9538 78.0229C27.0943 77.8302 27.1645 77.4155 27.1645 76.7783Z" fill="black"/>
<path d="M63.9052 69.9709C64.2423 69.9709 64.6145 69.9635 65.0218 69.9487C65.4432 69.919 65.8294 69.9042 66.1806 69.9042C67.1497 69.9042 67.8871 70.045 68.3928 70.3265C68.9125 70.608 69.1723 71.0302 69.1723 71.5932C69.1723 72.4082 68.4701 73.2082 67.0655 73.9934L66.8126 73.8156C66.8828 73.6083 66.939 73.3785 66.9812 73.1267C67.0233 72.86 67.0444 72.5637 67.0444 72.2377C67.0444 71.5414 66.9321 71.0525 66.7073 70.7709C66.4966 70.4894 66.1525 70.3487 65.6749 70.3487C65.3519 70.3487 65.1341 70.4376 65.0218 70.6154C64.9095 70.7932 64.8532 71.1858 64.8532 71.7933V76.727C64.8532 77.1863 64.9375 77.5344 65.1061 77.7715C65.2746 77.9937 65.6187 78.1049 66.1384 78.1049C66.7425 78.1049 67.1849 77.9567 67.4658 77.6604C67.7466 77.3492 67.8871 76.8899 67.8871 76.2825C67.8871 75.6751 67.7327 75.1713 67.4236 74.7713C67.1287 74.3712 66.623 74.1712 65.9067 74.1712H63.9894L63.9684 73.749H66.6441C68.9195 73.749 70.0572 74.4379 70.0572 75.8158C70.0572 76.6159 69.7271 77.2752 69.067 77.7937C68.4069 78.3122 67.55 78.5716 66.4966 78.5716C66.1876 78.5716 65.7733 78.5567 65.2536 78.5271C64.7479 78.4975 64.2985 78.4827 63.9052 78.4827C63.5118 78.4827 63.1256 78.49 62.7464 78.5049C62.3812 78.5198 62.0441 78.5271 61.7351 78.5271C61.6929 78.5271 61.6719 78.4827 61.6719 78.3938C61.6719 78.3049 61.6929 78.2604 61.7351 78.2604C62.2266 78.2604 62.5427 78.1642 62.6832 77.9715C62.8237 77.7789 62.8939 77.3641 62.8939 76.727V71.7488C62.8939 71.0969 62.8237 70.6821 62.6832 70.5043C62.5427 70.3116 62.2337 70.2153 61.7561 70.2153C61.714 70.2153 61.6929 70.1709 61.6929 70.082C61.6929 69.9931 61.714 69.9487 61.7561 69.9487C62.0511 69.9487 62.3812 69.9561 62.7464 69.9709C63.1256 69.9709 63.5118 69.9709 63.9052 69.9709ZM72.9032 78.5271C72.8611 78.5271 72.84 78.4827 72.84 78.3938C72.84 78.3049 72.8611 78.2604 72.9032 78.2604C73.3948 78.2604 73.7108 78.1642 73.8513 77.9715C73.9917 77.7789 74.062 77.3641 74.062 76.727V71.7933C74.062 71.2747 74.0268 70.9191 73.9566 70.7265C73.8863 70.5339 73.7319 70.4376 73.4931 70.4376C73.0296 70.4376 72.6433 70.6228 72.3343 70.9932C72.0253 71.3488 71.7303 71.9562 71.4495 72.8156C71.4354 72.86 71.3863 72.8822 71.302 72.8822C71.2317 72.8822 71.1966 72.86 71.1966 72.8156C71.1966 72.6082 71.1966 72.297 71.1966 71.8821C71.1966 71.4673 71.1895 71.0376 71.1756 70.5932C71.1756 70.1487 71.1756 69.7931 71.1756 69.5264C71.1756 69.4523 71.2177 69.4153 71.302 69.4153C71.3863 69.4153 71.4284 69.4523 71.4284 69.5264C71.4284 69.719 71.7093 69.8449 72.2711 69.9042C72.847 69.9487 73.7951 69.9709 75.1154 69.9709C75.916 69.9709 76.5761 69.9635 77.0959 69.9487C77.6155 69.919 78.0018 69.8746 78.2547 69.8153C78.5075 69.756 78.6339 69.6597 78.6339 69.5264C78.6339 69.4523 78.676 69.4153 78.7603 69.4153C78.8446 69.4153 78.8867 69.4523 78.8867 69.5264C78.8867 69.7931 78.8867 70.1487 78.8867 70.5932C78.8867 71.0376 78.8796 71.4673 78.8656 71.8821C78.8656 72.297 78.8656 72.6082 78.8656 72.8156C78.8656 72.86 78.8235 72.8822 78.7392 72.8822C78.6689 72.8822 78.6268 72.86 78.6128 72.8156C78.3459 71.9562 78.0509 71.3488 77.7279 70.9932C77.4189 70.6228 77.0396 70.4376 76.5902 70.4376C76.3654 70.4376 76.211 70.5339 76.1267 70.7265C76.0564 70.9191 76.0214 71.2747 76.0214 71.7933V76.727C76.0214 77.3641 76.0916 77.7789 76.2321 77.9715C76.3724 78.1642 76.6815 78.2604 77.1591 78.2604C77.2012 78.2604 77.2223 78.3049 77.2223 78.3938C77.2223 78.4827 77.2012 78.5271 77.1591 78.5271C76.8641 78.5271 76.534 78.5198 76.1689 78.5049C75.8177 78.49 75.4525 78.4827 75.0733 78.4827C74.68 78.4827 74.2937 78.49 73.9145 78.5049C73.5492 78.5198 73.2121 78.5271 72.9032 78.5271Z" fill="black"/>
<path d="M112.395 78.7937C111.425 78.7937 110.625 78.5789 109.993 78.1492C109.361 77.7048 108.89 77.1418 108.581 76.4602C108.286 75.7786 108.139 75.0897 108.139 74.3934C108.139 73.6526 108.286 72.9933 108.581 72.4154C108.876 71.8376 109.262 71.3561 109.74 70.9709C110.231 70.5709 110.772 70.2671 111.362 70.0597C111.952 69.8523 112.535 69.7486 113.111 69.7486C113.518 69.7486 113.926 69.8152 114.333 69.9486C114.74 70.0671 115.077 70.2523 115.344 70.5042C115.611 70.7412 115.744 71.045 115.744 71.4154C115.744 71.6672 115.646 71.9043 115.45 72.1265C115.253 72.3339 114.965 72.4377 114.586 72.4377C114.235 72.4377 113.961 72.3414 113.764 72.1488C113.567 71.9561 113.413 71.6747 113.301 71.3042C113.202 70.9487 113.09 70.682 112.963 70.5042C112.851 70.3116 112.626 70.2153 112.289 70.2153C111.685 70.2153 111.201 70.5338 110.835 71.1709C110.484 71.808 110.309 72.6377 110.309 73.66C110.309 74.4007 110.414 75.0823 110.625 75.7046C110.835 76.312 111.18 76.8009 111.657 77.1714C112.135 77.527 112.774 77.7048 113.574 77.7048C113.996 77.7048 114.347 77.6529 114.628 77.5492C114.923 77.4454 115.246 77.3047 115.597 77.1269C115.625 77.0973 115.66 77.1121 115.702 77.1714C115.759 77.2307 115.773 77.2751 115.744 77.3047C115.253 77.7788 114.747 78.1492 114.228 78.4159C113.708 78.6677 113.097 78.7937 112.395 78.7937ZM116.815 84.6386C116.773 84.6386 116.752 84.5942 116.752 84.5053C116.752 84.4164 116.773 84.372 116.815 84.372C117.306 84.372 117.622 84.2757 117.763 84.083C117.917 83.8904 117.995 83.4756 117.995 82.8385V71.7487C117.995 71.0968 117.882 70.682 117.658 70.5042C117.447 70.3116 117.096 70.2153 116.604 70.2153C116.576 70.2153 116.562 70.1708 116.562 70.0819C116.562 69.993 116.576 69.9486 116.604 69.9486C116.815 69.9486 117.096 69.9486 117.447 69.9486C117.798 69.9486 118.156 69.9486 118.521 69.9486C118.901 69.9486 119.224 69.9486 119.491 69.9486C119.687 69.9486 119.814 69.993 119.87 70.0819C119.926 70.156 119.954 70.2819 119.954 70.4597V82.8385C119.954 83.2534 119.996 83.5719 120.081 83.7941C120.179 84.0164 120.361 84.1646 120.628 84.2386C120.895 84.3275 121.295 84.372 121.829 84.372C121.871 84.372 121.892 84.4164 121.892 84.5053C121.892 84.5942 121.871 84.6386 121.829 84.6386C121.436 84.6386 120.993 84.6313 120.502 84.6164C120.01 84.6016 119.491 84.5942 118.943 84.5942C118.55 84.5942 118.163 84.6016 117.784 84.6164C117.419 84.6313 117.096 84.6386 116.815 84.6386ZM121.766 78.816C121.218 78.816 120.748 78.7715 120.354 78.6826C119.975 78.5937 119.519 78.453 118.985 78.2604L119.722 76.8602C120.031 77.2603 120.361 77.5936 120.713 77.8603C121.078 78.127 121.562 78.2604 122.166 78.2604C122.826 78.2604 123.346 77.9566 123.725 77.3492C124.105 76.7418 124.294 75.7713 124.294 74.4378C124.294 73.2526 124.034 72.371 123.515 71.7932C122.995 71.2005 122.384 70.9042 121.682 70.9042C121.162 70.9042 120.713 71.045 120.333 71.3265C119.954 71.608 119.582 71.9636 119.217 72.3932L119.006 72.1265C119.722 71.2524 120.404 70.6227 121.05 70.2375C121.71 69.8523 122.384 69.6597 123.072 69.6597C123.662 69.6597 124.21 69.8226 124.716 70.1486C125.221 70.4597 125.629 70.919 125.938 71.5265C126.261 72.1339 126.422 72.8748 126.422 73.7489C126.422 74.6972 126.275 75.4972 125.98 76.1491C125.699 76.8009 125.327 77.3269 124.863 77.727C124.4 78.1121 123.894 78.3863 123.346 78.5493C122.812 78.7271 122.286 78.816 121.766 78.816Z" fill="black"/>
<path d="M162.854 76.727V71.7488C162.854 71.0969 162.805 70.6821 162.707 70.5043C162.622 70.3116 162.418 70.2153 162.096 70.2153C162.053 70.2153 162.032 70.1709 162.032 70.082C162.032 69.9931 162.053 69.9487 162.096 69.9487C162.334 69.9487 162.608 69.9561 162.917 69.9709C163.24 69.9857 163.556 69.9931 163.865 69.9931C164.245 69.9931 164.617 69.9857 164.982 69.9709C165.347 69.9561 165.671 69.9487 165.951 69.9487C165.993 69.9487 166.014 69.9931 166.014 70.082C166.014 70.1709 165.993 70.2153 165.951 70.2153C165.473 70.2153 165.165 70.3191 165.024 70.5265C164.898 70.7339 164.834 71.1562 164.834 71.7933V76.727C164.834 77.3641 164.898 77.7789 165.024 77.9715C165.165 78.1642 165.473 78.2604 165.951 78.2604C165.993 78.2604 166.014 78.3049 166.014 78.3938C166.014 78.4827 165.993 78.5271 165.951 78.5271C165.656 78.5271 165.326 78.5198 164.961 78.5049C164.609 78.49 164.245 78.4827 163.865 78.4827C163.472 78.4827 163.086 78.49 162.707 78.5049C162.327 78.5198 161.99 78.5271 161.695 78.5271C161.668 78.5271 161.653 78.4827 161.653 78.3938C161.653 78.3049 161.668 78.2604 161.695 78.2604C162.186 78.2604 162.502 78.1642 162.643 77.9715C162.784 77.7789 162.854 77.3641 162.854 76.727ZM159.968 71.7933C159.968 71.9117 159.968 72.0229 159.968 72.1266C159.968 72.2155 159.968 72.3044 159.968 72.3933C159.968 73.06 160.066 73.5416 160.263 73.8379C160.473 74.1194 160.804 74.2601 161.253 74.2601C161.731 74.2601 162.11 74.2157 162.39 74.1268C162.685 74.023 162.966 73.8972 163.233 73.749L163.317 73.9712C162.77 74.475 162.229 74.8306 161.695 75.038C161.162 75.2453 160.684 75.3491 160.263 75.3491C159.574 75.3491 159.026 75.1417 158.619 74.7268C158.225 74.3119 158.029 73.6972 158.029 72.8822V71.7488C158.029 71.0969 157.987 70.6821 157.903 70.5043C157.833 70.3116 157.657 70.2153 157.376 70.2153C157.348 70.2153 157.334 70.1709 157.334 70.082C157.334 69.9931 157.348 69.9487 157.376 69.9487C157.614 69.9487 157.875 69.9561 158.156 69.9709C158.436 69.9857 158.731 69.9931 159.041 69.9931C159.35 69.9931 159.652 69.9857 159.947 69.9709C160.256 69.9561 160.53 69.9487 160.768 69.9487C160.796 69.9487 160.81 69.9931 160.81 70.082C160.81 70.1709 160.796 70.2153 160.768 70.2153C160.431 70.2153 160.214 70.3191 160.115 70.5265C160.016 70.7339 159.968 71.1562 159.968 71.7933ZM168.906 78.5271C168.864 78.5271 168.843 78.4827 168.843 78.3938C168.843 78.3049 168.864 78.2604 168.906 78.2604C169.397 78.2604 169.713 78.1642 169.854 77.9715C169.994 77.7789 170.065 77.3641 170.065 76.727V71.7933C170.065 71.2747 170.029 70.9191 169.959 70.7265C169.888 70.5339 169.734 70.4376 169.496 70.4376C169.032 70.4376 168.645 70.6228 168.337 70.9932C168.028 71.3488 167.733 71.9562 167.452 72.8156C167.438 72.86 167.389 72.8822 167.305 72.8822C167.234 72.8822 167.199 72.86 167.199 72.8156C167.199 72.6082 167.199 72.297 167.199 71.8821C167.199 71.4673 167.191 71.0376 167.178 70.5932C167.178 70.1487 167.178 69.7931 167.178 69.5264C167.178 69.4523 167.22 69.4153 167.305 69.4153C167.389 69.4153 167.431 69.4523 167.431 69.5264C167.431 69.719 167.712 69.8449 168.274 69.9042C168.849 69.9487 169.797 69.9709 171.118 69.9709C171.919 69.9709 172.579 69.9635 173.099 69.9487C173.617 69.919 174.005 69.8746 174.257 69.8153C174.51 69.756 174.637 69.6597 174.637 69.5264C174.637 69.4523 174.679 69.4153 174.763 69.4153C174.847 69.4153 174.889 69.4523 174.889 69.5264C174.889 69.7931 174.889 70.1487 174.889 70.5932C174.889 71.0376 174.882 71.4673 174.868 71.8821C174.868 72.297 174.868 72.6082 174.868 72.8156C174.868 72.86 174.826 72.8822 174.742 72.8822C174.671 72.8822 174.629 72.86 174.616 72.8156C174.348 71.9562 174.053 71.3488 173.731 70.9932C173.421 70.6228 173.042 70.4376 172.593 70.4376C172.368 70.4376 172.214 70.5339 172.129 70.7265C172.058 70.9191 172.024 71.2747 172.024 71.7933V76.727C172.024 77.3641 172.094 77.7789 172.235 77.9715C172.374 78.1642 172.684 78.2604 173.162 78.2604C173.204 78.2604 173.225 78.3049 173.225 78.3938C173.225 78.4827 173.204 78.5271 173.162 78.5271C172.867 78.5271 172.536 78.5198 172.172 78.5049C171.82 78.49 171.455 78.4827 171.076 78.4827C170.682 78.4827 170.297 78.49 169.917 78.5049C169.551 78.5198 169.214 78.5271 168.906 78.5271Z" fill="black"/>
<path d="M215.188 78.2604C215.215 78.2604 215.23 78.3049 215.23 78.3938C215.23 78.4827 215.215 78.5271 215.188 78.5271C214.893 78.5271 214.562 78.5198 214.198 78.5049C213.846 78.49 213.481 78.4827 213.102 78.4827C212.75 78.4827 212.407 78.49 212.07 78.5049C211.732 78.5198 211.431 78.5271 211.164 78.5271C211.136 78.5271 211.121 78.4827 211.121 78.3938C211.121 78.3049 211.136 78.2604 211.164 78.2604C211.557 78.2604 211.81 78.1642 211.922 77.9715C212.034 77.7789 212.091 77.3641 212.091 76.727V71.7488C212.091 71.3043 212.084 70.9932 212.07 70.8154C212.055 70.6228 212 70.5117 211.901 70.482C211.817 70.4376 211.669 70.4154 211.459 70.4154H209.036C208.825 70.4154 208.671 70.4376 208.572 70.482C208.488 70.5265 208.431 70.645 208.404 70.8376C208.389 71.0154 208.383 71.334 208.383 71.7933V76.727C208.383 77.3641 208.431 77.7789 208.53 77.9715C208.642 78.1642 208.888 78.2604 209.267 78.2604C209.31 78.2604 209.331 78.3049 209.331 78.3938C209.331 78.4827 209.31 78.5271 209.267 78.5271C209.015 78.5271 208.726 78.5198 208.404 78.5049C208.081 78.49 207.757 78.4827 207.434 78.4827C207.041 78.4827 206.655 78.49 206.276 78.5049C205.911 78.5198 205.574 78.5271 205.264 78.5271C205.222 78.5271 205.201 78.4827 205.201 78.3938C205.201 78.3049 205.222 78.2604 205.264 78.2604C205.756 78.2604 206.072 78.1642 206.212 77.9715C206.353 77.7789 206.423 77.3641 206.423 76.727V71.7488C206.423 71.0969 206.353 70.6821 206.212 70.5043C206.072 70.3116 205.763 70.2153 205.285 70.2153C205.243 70.2153 205.222 70.1709 205.222 70.082C205.222 69.9931 205.243 69.9487 205.285 69.9487H215.188C215.215 69.9487 215.23 69.9931 215.23 70.082C215.23 70.1709 215.215 70.2153 215.188 70.2153C214.71 70.2153 214.402 70.3191 214.261 70.5265C214.12 70.7339 214.05 71.1562 214.05 71.7933V76.727C214.05 77.3641 214.12 77.7789 214.261 77.9715C214.402 78.1642 214.71 78.2604 215.188 78.2604ZM218.12 78.5271C218.078 78.5271 218.057 78.4827 218.057 78.3938C218.057 78.3049 218.078 78.2604 218.12 78.2604C218.611 78.2604 218.927 78.1642 219.068 77.9715C219.208 77.7789 219.279 77.3641 219.279 76.727V71.7933C219.279 71.2747 219.243 70.9191 219.174 70.7265C219.103 70.5339 218.949 70.4376 218.71 70.4376C218.247 70.4376 217.86 70.6228 217.551 70.9932C217.242 71.3488 216.947 71.9562 216.666 72.8156C216.652 72.86 216.603 72.8822 216.519 72.8822C216.448 72.8822 216.414 72.86 216.414 72.8156C216.414 72.6082 216.414 72.297 216.414 71.8821C216.414 71.4673 216.406 71.0376 216.393 70.5932C216.393 70.1487 216.393 69.7931 216.393 69.5264C216.393 69.4523 216.435 69.4153 216.519 69.4153C216.603 69.4153 216.645 69.4523 216.645 69.5264C216.645 69.719 216.926 69.8449 217.488 69.9042C218.064 69.9487 219.012 69.9709 220.332 69.9709C221.133 69.9709 221.793 69.9635 222.313 69.9487C222.832 69.919 223.219 69.8746 223.472 69.8153C223.725 69.756 223.851 69.6597 223.851 69.5264C223.851 69.4523 223.893 69.4153 223.977 69.4153C224.062 69.4153 224.104 69.4523 224.104 69.5264C224.104 69.7931 224.104 70.1487 224.104 70.5932C224.104 71.0376 224.096 71.4673 224.083 71.8821C224.083 72.297 224.083 72.6082 224.083 72.8156C224.083 72.86 224.041 72.8822 223.956 72.8822C223.885 72.8822 223.843 72.86 223.83 72.8156C223.563 71.9562 223.268 71.3488 222.945 70.9932C222.636 70.6228 222.256 70.4376 221.807 70.4376C221.582 70.4376 221.428 70.5339 221.344 70.7265C221.273 70.9191 221.238 71.2747 221.238 71.7933V76.727C221.238 77.3641 221.308 77.7789 221.449 77.9715C221.589 78.1642 221.898 78.2604 222.376 78.2604C222.418 78.2604 222.439 78.3049 222.439 78.3938C222.439 78.4827 222.418 78.5271 222.376 78.5271C222.081 78.5271 221.751 78.5198 221.386 78.5049C221.034 78.49 220.67 78.4827 220.29 78.4827C219.897 78.4827 219.511 78.49 219.132 78.5049C218.765 78.5198 218.428 78.5271 218.12 78.5271Z" fill="black"/>
<path d="M259.559 78.7938C258.589 78.7938 257.789 78.579 257.157 78.1493C256.525 77.7049 256.055 77.1419 255.745 76.4603C255.45 75.7787 255.303 75.0898 255.303 74.3935C255.303 73.6527 255.45 72.9934 255.745 72.4156C256.04 71.8377 256.426 71.3562 256.904 70.971C257.395 70.571 257.936 70.2672 258.526 70.0598C259.116 69.8524 259.7 69.7487 260.275 69.7487C260.682 69.7487 261.09 69.8153 261.497 69.9487C261.904 70.0672 262.241 70.2524 262.508 70.5043C262.776 70.7413 262.909 71.0451 262.909 71.4155C262.909 71.6673 262.81 71.9044 262.614 72.1266C262.417 72.334 262.129 72.4378 261.75 72.4378C261.398 72.4378 261.124 72.3415 260.928 72.1489C260.732 71.9562 260.577 71.6748 260.465 71.3044C260.366 70.9488 260.254 70.6821 260.127 70.5043C260.016 70.3117 259.79 70.2154 259.453 70.2154C258.849 70.2154 258.364 70.5339 258 71.171C257.648 71.8081 257.473 72.6378 257.473 73.6601C257.473 74.4008 257.578 75.0824 257.789 75.7047C258 76.3121 258.343 76.801 258.821 77.1715C259.299 77.5271 259.938 77.7049 260.738 77.7049C261.16 77.7049 261.511 77.6531 261.792 77.5493C262.087 77.4455 262.409 77.3048 262.761 77.127C262.789 77.0975 262.824 77.1122 262.866 77.1715C262.923 77.2308 262.936 77.2752 262.909 77.3048C262.417 77.7789 261.912 78.1493 261.392 78.416C260.871 78.6679 260.26 78.7938 259.559 78.7938ZM268.153 78.8161C267.423 78.8161 266.742 78.6383 266.11 78.2827C265.492 77.9122 264.993 77.3344 264.614 76.5492C264.249 75.764 264.066 74.7491 264.066 73.5045C264.066 71.6228 264.262 70.0969 264.656 68.9264C265.05 67.7411 265.611 66.8225 266.341 66.1706C267.072 65.5039 267.936 65.015 268.933 64.7038C269.396 64.5557 269.818 64.4075 270.197 64.2593C270.576 64.0964 270.913 63.8741 271.208 63.5926C271.518 63.3111 271.777 62.9185 271.988 62.4148C272.002 62.3703 272.044 62.3555 272.114 62.3703C272.184 62.3851 272.213 62.4148 272.199 62.4592C272.087 63.2593 271.946 63.9112 271.777 64.4149C271.623 64.9038 271.419 65.2965 271.166 65.5928C270.928 65.8891 270.625 66.1336 270.26 66.3262C269.895 66.504 269.453 66.6818 268.933 66.8596C268.328 67.0522 267.76 67.304 267.226 67.6152C266.693 67.9263 266.215 68.356 265.794 68.9042C265.387 69.4524 265.063 70.1783 264.824 71.0821C264.599 71.9711 264.487 73.1045 264.487 74.4824L264.298 73.5934C264.565 72.6896 264.902 71.9859 265.309 71.4821C265.73 70.9784 266.152 70.6228 266.573 70.4154C267.009 70.1932 267.388 70.0598 267.711 70.0154C268.048 69.9561 268.28 69.9265 268.406 69.9265C269.249 69.9265 269.951 70.0598 270.513 70.3265C271.088 70.5784 271.545 70.9191 271.882 71.3488C272.234 71.7784 272.479 72.2451 272.62 72.7489C272.774 73.2378 272.852 73.7194 272.852 74.1935C272.852 75.1565 272.626 75.9863 272.177 76.6826C271.742 77.3641 271.166 77.89 270.45 78.2605C269.748 78.6309 268.982 78.8161 268.153 78.8161ZM268.975 78.3494C269.508 78.3494 269.923 78.0604 270.218 77.4826C270.513 76.9048 270.661 76.0454 270.661 74.9046C270.661 73.8972 270.541 73.06 270.302 72.3933C270.064 71.7117 269.755 71.2081 269.375 70.8821C268.996 70.5413 268.581 70.3709 268.132 70.3709C267.683 70.3709 267.325 70.5413 267.058 70.8821C266.805 71.2081 266.622 71.6303 266.51 72.1489C266.411 72.6527 266.362 73.186 266.362 73.749C266.362 74.6231 266.468 75.4084 266.679 76.1047C266.889 76.801 267.191 77.3493 267.584 77.7493C267.978 78.1493 268.442 78.3494 268.975 78.3494Z" fill="black"/>
<path d="M306.196 69.9708C306.533 69.9708 306.906 69.9634 307.313 69.9486C307.734 69.9189 308.12 69.9041 308.472 69.9041C309.441 69.9041 310.178 70.0448 310.684 70.3264C311.204 70.6079 311.463 71.0301 311.463 71.5931C311.463 72.4081 310.761 73.2081 309.356 73.9933L309.104 73.8155C309.173 73.6081 309.23 73.3784 309.272 73.1266C309.314 72.8599 309.335 72.5636 309.335 72.2376C309.335 71.5413 309.223 71.0523 308.998 70.7708C308.788 70.4893 308.444 70.3486 307.966 70.3486C307.643 70.3486 307.425 70.4375 307.313 70.6153C307.201 70.7931 307.144 71.1857 307.144 71.7931V76.7269C307.144 77.1862 307.229 77.5343 307.397 77.7714C307.566 77.9936 307.909 78.1048 308.429 78.1048C309.034 78.1048 309.476 77.9566 309.757 77.6603C310.037 77.3491 310.178 76.8898 310.178 76.2824C310.178 75.675 310.024 75.1712 309.715 74.7712C309.42 74.3711 308.914 74.1711 308.198 74.1711H306.28L306.259 73.7489H308.935C311.211 73.7489 312.348 74.4378 312.348 75.8157C312.348 76.6157 312.018 77.2751 311.358 77.7936C310.698 78.3121 309.841 78.5715 308.788 78.5715C308.478 78.5715 308.065 78.5566 307.545 78.527C307.039 78.4974 306.59 78.4826 306.196 78.4826C305.802 78.4826 305.417 78.4899 305.037 78.5048C304.673 78.5197 304.336 78.527 304.026 78.527C303.984 78.527 303.963 78.4826 303.963 78.3937C303.963 78.3048 303.984 78.2603 304.026 78.2603C304.517 78.2603 304.833 78.1641 304.974 77.9714C305.115 77.7788 305.185 77.364 305.185 76.7269V71.7487C305.185 71.0968 305.115 70.6819 304.974 70.5042C304.833 70.3115 304.525 70.2152 304.047 70.2152C304.005 70.2152 303.984 70.1708 303.984 70.0819C303.984 69.993 304.005 69.9486 304.047 69.9486C304.342 69.9486 304.673 69.956 305.037 69.9708C305.417 69.9708 305.802 69.9708 306.196 69.9708ZM317.87 78.7937C316.9 78.7937 316.1 78.5788 315.468 78.1492C314.836 77.7047 314.366 77.1418 314.056 76.4602C313.761 75.7786 313.614 75.0897 313.614 74.3934C313.614 73.6526 313.761 72.9932 314.056 72.4154C314.351 71.8376 314.738 71.3561 315.215 70.9709C315.707 70.5708 316.247 70.2671 316.837 70.0597C317.427 69.8523 318.01 69.7485 318.586 69.7485C318.994 69.7485 319.401 69.8152 319.808 69.9486C320.216 70.0671 320.553 70.2523 320.819 70.5042C321.086 70.7412 321.219 71.0449 321.219 71.4153C321.219 71.6672 321.122 71.9043 320.925 72.1265C320.728 72.3339 320.44 72.4376 320.061 72.4376C319.71 72.4376 319.437 72.3414 319.239 72.1487C319.043 71.9561 318.889 71.6747 318.775 71.3042C318.678 70.9486 318.565 70.6819 318.438 70.5042C318.326 70.3115 318.101 70.2152 317.764 70.2152C317.161 70.2152 316.677 70.5338 316.31 71.1709C315.96 71.808 315.784 72.6377 315.784 73.66C315.784 74.4007 315.889 75.0823 316.1 75.7046C316.31 76.312 316.655 76.8009 317.132 77.1713C317.61 77.5269 318.249 77.7047 319.049 77.7047C319.471 77.7047 319.822 77.6529 320.103 77.5492C320.398 77.4454 320.722 77.3047 321.072 77.1269C321.101 77.0973 321.135 77.112 321.177 77.1713C321.234 77.2307 321.248 77.2751 321.219 77.3047C320.728 77.7788 320.223 78.1492 319.703 78.4159C319.184 78.6677 318.573 78.7937 317.87 78.7937Z" fill="black"/>
<path d="M113.232 125.631H111.403V115.002C111.403 114.392 111.41 113.902 111.424 113.533C111.438 113.163 111.459 112.78 111.488 112.382C111.261 112.61 111.055 112.801 110.871 112.957C110.687 113.114 110.453 113.312 110.169 113.554L108.553 114.874L107.574 113.618L111.679 110.423H113.232V125.631Z" fill="black"/>
<path d="M165.926 125.63H155.887V124.076L159.864 120.05C160.63 119.283 161.274 118.602 161.8 118.005C162.325 117.409 162.721 116.827 162.991 116.259C163.26 115.677 163.395 115.045 163.395 114.363C163.395 113.525 163.146 112.893 162.65 112.467C162.154 112.027 161.508 111.807 160.715 111.807C159.977 111.807 159.326 111.935 158.758 112.191C158.205 112.446 157.637 112.801 157.057 113.256L156.057 111.999C156.652 111.502 157.333 111.083 158.099 110.742C158.879 110.387 159.751 110.21 160.715 110.21C162.133 110.21 163.252 110.572 164.075 111.296C164.898 112.006 165.309 112.993 165.309 114.257C165.309 115.052 165.145 115.797 164.82 116.493C164.494 117.189 164.039 117.877 163.459 118.559C162.878 119.226 162.197 119.944 161.417 120.71L158.248 123.841V123.927H165.926V125.63Z" fill="black"/>
<path d="M214.536 113.98C214.536 115.002 214.253 115.819 213.686 116.429C213.118 117.026 212.352 117.423 211.389 117.622V117.707C212.608 117.849 213.515 118.233 214.111 118.857C214.707 119.482 215.004 120.299 215.004 121.307C215.004 122.187 214.798 122.975 214.387 123.671C213.977 124.352 213.339 124.885 212.473 125.268C211.622 125.652 210.523 125.843 209.177 125.843C208.383 125.843 207.645 125.78 206.965 125.652C206.284 125.538 205.631 125.325 205.008 125.013V123.266C205.646 123.579 206.333 123.827 207.071 124.012C207.809 124.182 208.517 124.267 209.198 124.267C210.559 124.267 211.537 124.005 212.133 123.479C212.743 122.94 213.048 122.201 213.048 121.264C213.048 120.313 212.671 119.631 211.92 119.219C211.182 118.793 210.14 118.58 208.794 118.58H207.326V116.983H208.815C210.063 116.983 211.006 116.72 211.644 116.195C212.296 115.669 212.622 114.974 212.622 114.108C212.622 113.369 212.374 112.801 211.878 112.404C211.382 111.992 210.708 111.786 209.857 111.786C209.034 111.786 208.332 111.907 207.752 112.148C207.171 112.389 206.596 112.695 206.029 113.064L205.093 111.786C205.631 111.36 206.299 110.991 207.092 110.678C207.9 110.366 208.815 110.21 209.836 110.21C211.424 110.21 212.601 110.565 213.367 111.275C214.147 111.985 214.536 112.886 214.536 113.98Z" fill="black"/>
<path fill-rule="evenodd" clip-rule="evenodd" d="M207.12 205.173C204.697 202.759 200.572 199.016 195.24 200.149C189.854 201.294 188.011 206.658 188.932 210.99C190.144 216.69 194.188 220.951 198.827 224.169C203.472 227.393 208.807 229.611 212.654 231.207C215.519 228.184 219.49 223.988 222.423 219.154C225.351 214.327 227.313 208.789 226.102 203.089C225.181 198.757 221.315 194.607 215.929 195.751C210.598 196.885 208.352 201.982 207.12 205.173Z" fill="#70594B"/>
<path d="M264.976 122.18H262.764V125.631H260.956V122.18H253.682V120.583L260.828 110.338H262.764V120.497H264.976V122.18ZM260.956 115.705C260.956 114.967 260.97 114.342 260.998 113.831C261.026 113.305 261.047 112.808 261.062 112.34H260.977C260.864 112.61 260.722 112.901 260.552 113.213C260.381 113.525 260.218 113.788 260.062 114.001L255.511 120.497H260.956V115.705Z" fill="black"/>
<path d="M315.366 116.301C316.926 116.301 318.166 116.692 319.089 117.473C320.01 118.254 320.471 119.354 320.471 120.774C320.471 122.35 319.967 123.593 318.961 124.502C317.968 125.396 316.579 125.844 314.792 125.844C314.012 125.844 313.274 125.773 312.58 125.631C311.9 125.489 311.325 125.283 310.857 125.013V123.245C311.368 123.558 311.985 123.806 312.708 123.991C313.444 124.161 314.146 124.246 314.813 124.246C315.933 124.246 316.834 123.983 317.515 123.458C318.209 122.919 318.557 122.088 318.557 120.966C318.557 119.972 318.251 119.212 317.642 118.687C317.032 118.147 316.068 117.878 314.75 117.878C314.352 117.878 313.899 117.913 313.388 117.984C312.878 118.055 312.466 118.126 312.155 118.197L311.219 117.601L311.793 110.423H319.408V112.127H313.388L313.027 116.536C313.267 116.493 313.593 116.444 314.005 116.387C314.416 116.33 314.869 116.301 315.366 116.301Z" fill="black"/>
<path d="M7.60938 167.058C7.60938 165.964 7.70154 164.892 7.88587 163.842C8.08438 162.777 8.43178 161.818 8.92806 160.966C9.43852 160.1 10.1475 159.411 11.055 158.9C11.9625 158.389 13.1322 158.133 14.5644 158.133C14.8622 158.133 15.1883 158.148 15.5428 158.176C15.9114 158.204 16.2092 158.254 16.4361 158.325V159.922C16.1809 159.837 15.8902 159.773 15.5641 159.731C15.2521 159.688 14.933 159.667 14.607 159.667C13.6286 159.667 12.8132 159.83 12.161 160.157C11.5087 160.483 10.9912 160.931 10.6083 161.499C10.2397 162.067 9.97024 162.72 9.80009 163.458C9.62994 164.197 9.52359 164.985 9.48105 165.822H9.60867C9.93479 165.325 10.3885 164.906 10.9699 164.566C11.5512 164.211 12.2957 164.033 13.2031 164.033C14.5219 164.033 15.5853 164.438 16.3936 165.247C17.2018 166.042 17.6059 167.178 17.6059 168.655C17.6059 170.246 17.1663 171.495 16.2872 172.404C15.4222 173.313 14.2524 173.767 12.7778 173.767C11.8136 173.767 10.9415 173.526 10.1617 173.043C9.38179 172.56 8.75791 171.822 8.28999 170.828C7.83625 169.834 7.60938 168.577 7.60938 167.058ZM12.7565 172.191C13.6499 172.191 14.373 171.907 14.926 171.339C15.479 170.757 15.7555 169.862 15.7555 168.655C15.7555 167.69 15.5073 166.923 15.0111 166.355C14.5289 165.787 13.7987 165.503 12.8203 165.503C12.1539 165.503 11.5725 165.645 11.0762 165.929C10.58 166.199 10.19 166.547 9.90644 166.973C9.63702 167.399 9.50232 167.839 9.50232 168.293C9.50232 168.904 9.62285 169.514 9.8639 170.125C10.1049 170.721 10.4665 171.218 10.9486 171.616C11.4307 171.999 12.0333 172.191 12.7565 172.191Z" fill="black"/>
<path d="M58.5153 173.554L64.7472 160.05H56.5586V158.346H66.7465V159.795L60.5785 173.554H58.5153Z" fill="black"/>
<path d="M109.541 158.133C110.874 158.133 111.966 158.446 112.816 159.07C113.667 159.695 114.093 160.597 114.093 161.775C114.093 162.386 113.958 162.919 113.688 163.373C113.433 163.827 113.086 164.232 112.646 164.587C112.207 164.928 111.725 165.233 111.2 165.503C111.824 165.801 112.391 166.142 112.902 166.525C113.412 166.894 113.816 167.328 114.114 167.825C114.426 168.321 114.582 168.918 114.582 169.614C114.582 170.892 114.128 171.907 113.221 172.659C112.327 173.398 111.122 173.767 109.605 173.767C107.974 173.767 106.719 173.412 105.84 172.702C104.961 171.978 104.521 170.97 104.521 169.678C104.521 168.982 104.663 168.378 104.947 167.867C105.245 167.356 105.635 166.916 106.117 166.547C106.599 166.177 107.116 165.865 107.669 165.609C106.932 165.183 106.301 164.672 105.776 164.076C105.266 163.465 105.011 162.691 105.011 161.754C105.011 160.973 105.209 160.32 105.606 159.795C106.003 159.255 106.542 158.843 107.223 158.559C107.903 158.275 108.676 158.133 109.541 158.133ZM109.52 159.646C108.74 159.646 108.095 159.837 107.584 160.221C107.088 160.59 106.84 161.129 106.84 161.839C106.84 162.365 106.96 162.805 107.201 163.16C107.457 163.515 107.797 163.82 108.222 164.076C108.648 164.317 109.116 164.551 109.626 164.779C110.363 164.466 110.98 164.09 111.476 163.65C111.987 163.21 112.242 162.606 112.242 161.839C112.242 161.129 111.994 160.59 111.498 160.221C111.001 159.837 110.342 159.646 109.52 159.646ZM106.351 169.699C106.351 170.437 106.613 171.055 107.138 171.552C107.662 172.035 108.47 172.276 109.562 172.276C110.597 172.276 111.384 172.035 111.923 171.552C112.476 171.055 112.753 170.416 112.753 169.635C112.753 168.897 112.462 168.286 111.881 167.803C111.299 167.306 110.526 166.873 109.562 166.504L109.222 166.376C108.286 166.774 107.57 167.235 107.074 167.761C106.592 168.272 106.351 168.918 106.351 169.699Z" fill="black"/>
<path d="M165.053 164.843C165.053 165.936 164.953 167.015 164.755 168.08C164.571 169.131 164.224 170.089 163.713 170.956C163.216 171.807 162.507 172.489 161.586 173C160.678 173.511 159.509 173.767 158.077 173.767C157.792 173.767 157.46 173.746 157.077 173.703C156.708 173.675 156.403 173.625 156.163 173.554V171.957C156.716 172.141 157.339 172.233 158.034 172.233C159.026 172.233 159.842 172.07 160.48 171.744C161.132 171.417 161.65 170.977 162.033 170.423C162.416 169.855 162.692 169.202 162.862 168.463C163.033 167.711 163.131 166.923 163.16 166.099H163.033C162.72 166.582 162.267 167.001 161.671 167.356C161.089 167.697 160.338 167.867 159.417 167.867C158.111 167.867 157.056 167.469 156.248 166.674C155.453 165.865 155.057 164.729 155.057 163.266C155.057 162.201 155.255 161.286 155.652 160.519C156.063 159.752 156.631 159.163 157.354 158.751C158.077 158.339 158.928 158.133 159.906 158.133C160.87 158.133 161.742 158.382 162.522 158.879C163.301 159.362 163.918 160.1 164.373 161.094C164.826 162.074 165.053 163.323 165.053 164.843ZM159.906 159.709C159.026 159.709 158.303 160.001 157.737 160.583C157.184 161.165 156.907 162.052 156.907 163.245C156.907 164.225 157.141 164.999 157.609 165.567C158.09 166.121 158.828 166.397 159.821 166.397C160.502 166.397 161.089 166.263 161.586 165.993C162.082 165.709 162.465 165.354 162.735 164.928C163.018 164.502 163.16 164.062 163.16 163.607C163.16 162.997 163.039 162.393 162.799 161.797C162.557 161.2 162.195 160.703 161.714 160.306C161.231 159.908 160.629 159.709 159.906 159.709Z" fill="black"/>
<path d="M202.96 173.554H201.131V162.926C201.131 162.315 201.138 161.825 201.152 161.456C201.167 161.087 201.188 160.704 201.216 160.306C200.989 160.533 200.784 160.725 200.599 160.881C200.415 161.037 200.181 161.236 199.898 161.477L198.281 162.798L197.303 161.541L201.408 158.346H202.96V173.554ZM218.705 165.929C218.705 167.562 218.535 168.968 218.194 170.146C217.854 171.311 217.316 172.205 216.578 172.83C215.841 173.455 214.863 173.767 213.643 173.767C211.928 173.767 210.658 173.078 209.836 171.701C209.027 170.31 208.623 168.385 208.623 165.929C208.623 164.282 208.787 162.876 209.112 161.712C209.453 160.547 209.992 159.66 210.729 159.049C211.467 158.424 212.438 158.112 213.643 158.112C215.344 158.112 216.614 158.801 217.45 160.178C218.287 161.541 218.705 163.458 218.705 165.929ZM210.495 165.929C210.495 168.016 210.729 169.578 211.197 170.615C211.679 171.651 212.494 172.17 213.643 172.17C214.778 172.17 215.586 171.658 216.067 170.636C216.565 169.599 216.812 168.031 216.812 165.929C216.812 163.856 216.565 162.301 216.067 161.264C215.586 160.228 214.778 159.71 213.643 159.71C212.494 159.71 211.679 160.228 211.197 161.264C210.729 162.301 210.495 163.856 210.495 165.929Z" fill="black"/>
<path d="M257.462 173.554H255.633V162.926C255.633 162.315 255.64 161.825 255.654 161.456C255.669 161.087 255.69 160.704 255.718 160.306C255.491 160.533 255.286 160.725 255.101 160.881C254.917 161.037 254.683 161.236 254.4 161.477L252.783 162.798L251.805 161.541L255.91 158.346H257.462V173.554ZM269.633 173.554H267.804V162.926C267.804 162.315 267.812 161.825 267.826 161.456C267.84 161.087 267.862 160.704 267.889 160.306C267.663 160.533 267.457 160.725 267.273 160.881C267.089 161.037 266.855 161.236 266.571 161.477L264.954 162.798L263.976 161.541L268.081 158.346H269.633V173.554Z" fill="black"/>
<path d="M311.964 173.554H310.135V162.926C310.135 162.315 310.142 161.825 310.156 161.456C310.171 161.087 310.192 160.703 310.22 160.306C309.993 160.533 309.788 160.725 309.603 160.881C309.419 161.037 309.185 161.236 308.901 161.477L307.285 162.798L306.307 161.541L310.412 158.346H311.964V173.554ZM327.645 173.554H317.606V171.999L321.583 167.974C322.349 167.207 322.995 166.525 323.519 165.929C324.044 165.332 324.441 164.75 324.71 164.182C324.98 163.6 325.114 162.968 325.114 162.287C325.114 161.449 324.867 160.817 324.369 160.391C323.874 159.951 323.229 159.731 322.434 159.731C321.697 159.731 321.045 159.859 320.477 160.114C319.924 160.37 319.358 160.725 318.776 161.179L317.776 159.922C318.372 159.426 319.052 159.007 319.818 158.666C320.598 158.311 321.47 158.133 322.434 158.133C323.852 158.133 324.973 158.495 325.794 159.22C326.617 159.929 327.028 160.916 327.028 162.18C327.028 162.975 326.866 163.721 326.539 164.417C326.213 165.112 325.76 165.801 325.178 166.483C324.597 167.15 323.916 167.867 323.136 168.634L319.967 171.765V171.85H327.645V173.554Z" fill="black"/>
<path d="M7.55015 221.478H5.72101V210.849C5.72101 210.239 5.7281 209.749 5.74228 209.38C5.75647 209.01 5.77773 208.627 5.80609 208.229C5.57921 208.457 5.37362 208.648 5.18929 208.805C5.00495 208.961 4.77099 209.16 4.48741 209.401L2.87096 210.721L1.89258 209.465L5.99751 206.27H7.55015V221.478ZM22.6569 209.827C22.6569 210.849 22.3732 211.666 21.8062 212.276C21.2389 212.873 20.4732 213.27 19.5091 213.469V213.554C20.7285 213.696 21.636 214.08 22.2315 214.704C22.8271 215.329 23.1248 216.146 23.1248 217.154C23.1248 218.034 22.9192 218.822 22.508 219.518C22.0967 220.2 21.4587 220.732 20.5938 221.116C19.743 221.499 18.6441 221.691 17.2971 221.691C16.503 221.691 15.7657 221.627 15.0851 221.499C14.4045 221.385 13.7522 221.172 13.1283 220.86V219.113C13.7664 219.426 14.4541 219.674 15.1915 219.859C15.9287 220.029 16.6378 220.114 17.3184 220.114C18.6796 220.114 19.658 219.852 20.2535 219.326C20.8631 218.787 21.1681 218.048 21.1681 217.111C21.1681 216.16 20.7923 215.478 20.0408 215.067C19.3034 214.641 18.2613 214.428 16.9143 214.428H15.4467V212.83H16.9355C18.1832 212.83 19.1262 212.567 19.7643 212.042C20.4165 211.517 20.7427 210.821 20.7427 209.955C20.7427 209.216 20.4945 208.648 19.9983 208.251C19.5019 207.839 18.8285 207.633 17.9777 207.633C17.1553 207.633 16.4534 207.754 15.8721 207.995C15.2906 208.236 14.7164 208.542 14.1493 208.911L13.2134 207.633C13.7522 207.207 14.4186 206.838 15.2127 206.525C16.021 206.213 16.9355 206.057 17.9564 206.057C19.5445 206.057 20.7214 206.412 21.4871 207.122C22.2669 207.832 22.6569 208.734 22.6569 209.827Z" fill="black"/>
<path d="M56.7357 221.478H54.9066V210.849C54.9066 210.239 54.9136 209.749 54.9278 209.38C54.9421 209.011 54.9633 208.627 54.9916 208.23C54.7647 208.457 54.5592 208.648 54.3748 208.805C54.1905 208.961 53.9565 209.16 53.673 209.401L52.0565 210.722L51.0781 209.465L55.1831 206.27H56.7357V221.478ZM73.0973 218.027H70.8854V221.478H69.0775V218.027H61.8035V216.43L68.9499 206.185H70.8854V216.345H73.0973V218.027ZM69.0775 211.552C69.0775 210.814 69.0916 210.189 69.12 209.678C69.1483 209.152 69.1696 208.656 69.1838 208.187H69.0988C68.9852 208.457 68.8435 208.748 68.6734 209.06C68.5032 209.373 68.3401 209.635 68.1842 209.848L63.6326 216.345H69.0775V211.552Z" fill="black"/>
<path d="M105.919 221.478H104.09V210.849C104.09 210.239 104.097 209.749 104.111 209.38C104.126 209.011 104.147 208.627 104.175 208.23C103.948 208.457 103.743 208.649 103.558 208.805C103.374 208.961 103.14 209.16 102.857 209.401L101.24 210.722L100.262 209.465L104.367 206.27H105.919V221.478ZM116.389 212.149C117.949 212.149 119.19 212.539 120.111 213.32C121.033 214.101 121.494 215.202 121.494 216.622C121.494 218.198 120.991 219.44 119.984 220.349C118.991 221.243 117.602 221.691 115.815 221.691C115.035 221.691 114.298 221.62 113.603 221.478C112.923 221.336 112.348 221.13 111.88 220.86V219.092C112.391 219.405 113.008 219.653 113.731 219.838C114.468 220.008 115.17 220.093 115.836 220.093C116.956 220.093 117.857 219.831 118.538 219.305C119.232 218.766 119.58 217.935 119.58 216.813C119.58 215.819 119.275 215.06 118.665 214.534C118.055 213.995 117.091 213.725 115.773 213.725C115.376 213.725 114.922 213.76 114.411 213.831C113.901 213.902 113.49 213.973 113.178 214.044L112.242 213.448L112.816 206.27H120.431V207.974H114.411L114.05 212.383C114.291 212.34 114.617 212.291 115.028 212.234C115.439 212.177 115.893 212.149 116.389 212.149Z" fill="black"/>
<path d="M155.105 221.478H153.276V210.849C153.276 210.239 153.282 209.749 153.297 209.38C153.312 209.01 153.333 208.627 153.361 208.229C153.133 208.457 152.929 208.648 152.744 208.805C152.559 208.961 152.325 209.16 152.042 209.401L150.426 210.721L149.447 209.465L153.552 206.27H155.105V221.478ZM160.895 214.981C160.895 213.888 160.988 212.816 161.172 211.765C161.371 210.7 161.718 209.742 162.214 208.89C162.724 208.023 163.434 207.335 164.341 206.824C165.249 206.312 166.419 206.057 167.85 206.057C168.148 206.057 168.475 206.071 168.829 206.099C169.198 206.128 169.496 206.178 169.722 206.249V207.846C169.467 207.761 169.177 207.697 168.85 207.654C168.539 207.612 168.22 207.59 167.893 207.59C166.914 207.59 166.1 207.754 165.447 208.08C164.796 208.407 164.277 208.854 163.894 209.422C163.526 209.99 163.256 210.643 163.086 211.382C162.916 212.12 162.81 212.908 162.767 213.746H162.895C163.222 213.249 163.675 212.83 164.256 212.489C164.838 212.134 165.583 211.957 166.489 211.957C167.808 211.957 168.871 212.361 169.679 213.171C170.488 213.966 170.892 215.102 170.892 216.579C170.892 218.169 170.453 219.419 169.573 220.327C168.709 221.236 167.539 221.691 166.064 221.691C165.1 221.691 164.228 221.449 163.448 220.966C162.669 220.484 162.044 219.745 161.576 218.751C161.123 217.757 160.895 216.501 160.895 214.981ZM166.042 220.114C166.936 220.114 167.659 219.831 168.212 219.262C168.765 218.68 169.041 217.786 169.041 216.579C169.041 215.613 168.794 214.846 168.297 214.278C167.816 213.71 167.085 213.426 166.106 213.426C165.44 213.426 164.859 213.569 164.362 213.852C163.866 214.122 163.477 214.47 163.192 214.896C162.924 215.322 162.788 215.762 162.788 216.217C162.788 216.827 162.909 217.438 163.15 218.048C163.392 218.645 163.753 219.142 164.235 219.539C164.717 219.923 165.319 220.114 166.042 220.114Z" fill="black"/>
<path d="M204.29 221.478H202.461V210.849C202.461 210.239 202.468 209.749 202.483 209.38C202.497 209.011 202.518 208.627 202.546 208.23C202.319 208.457 202.114 208.649 201.93 208.805C201.745 208.961 201.511 209.16 201.228 209.401L199.611 210.722L198.633 209.465L202.738 206.27H204.29V221.478ZM211.804 221.478L218.036 207.974H209.847V206.27H220.035V207.718L213.867 221.478H211.804Z" fill="#FCF7F3"/>
<path d="M258.376 221.478H256.547V210.849C256.547 210.239 256.554 209.749 256.568 209.38C256.582 209.01 256.603 208.627 256.632 208.229C256.405 208.457 256.199 208.648 256.015 208.805C255.831 208.961 255.597 209.16 255.314 209.401L253.697 210.721L252.719 209.465L256.824 206.27H258.376V221.478ZM269.059 206.057C270.391 206.057 271.483 206.369 272.334 206.994C273.185 207.619 273.61 208.521 273.61 209.699C273.61 210.31 273.475 210.842 273.206 211.297C272.951 211.751 272.603 212.156 272.164 212.511C271.724 212.851 271.241 213.157 270.718 213.426C271.341 213.725 271.909 214.065 272.419 214.449C272.93 214.818 273.334 215.251 273.632 215.748C273.943 216.245 274.099 216.841 274.099 217.537C274.099 218.815 273.645 219.831 272.738 220.583C271.845 221.321 270.639 221.691 269.123 221.691C267.491 221.691 266.237 221.336 265.358 220.626C264.478 219.901 264.039 218.893 264.039 217.601C264.039 216.905 264.18 216.302 264.465 215.791C264.762 215.28 265.152 214.839 265.634 214.47C266.116 214.101 266.634 213.789 267.187 213.533C266.449 213.107 265.818 212.596 265.294 211.999C264.784 211.389 264.528 210.615 264.528 209.678C264.528 208.897 264.726 208.244 265.124 207.718C265.52 207.179 266.06 206.767 266.74 206.483C267.421 206.199 268.193 206.057 269.059 206.057ZM269.037 207.569C268.257 207.569 267.612 207.761 267.102 208.144C266.605 208.513 266.358 209.053 266.358 209.763C266.358 210.288 266.477 210.729 266.719 211.084C266.974 211.439 267.315 211.744 267.74 211.999C268.165 212.241 268.633 212.475 269.144 212.702C269.88 212.39 270.497 212.014 270.994 211.573C271.505 211.133 271.76 210.53 271.76 209.763C271.76 209.053 271.511 208.513 271.015 208.144C270.518 207.761 269.859 207.569 269.037 207.569ZM265.868 217.622C265.868 218.361 266.13 218.979 266.655 219.475C267.179 219.958 267.987 220.2 269.08 220.2C270.114 220.2 270.901 219.958 271.441 219.475C271.994 218.979 272.27 218.34 272.27 217.559C272.27 216.82 271.979 216.21 271.398 215.727C270.816 215.23 270.044 214.797 269.08 214.428L268.74 214.3C267.804 214.697 267.087 215.159 266.592 215.684C266.109 216.195 265.868 216.841 265.868 217.622Z" fill="black"/>
<path d="M314.208 221.478H312.379V210.849C312.379 210.239 312.386 209.749 312.4 209.38C312.414 209.01 312.435 208.627 312.464 208.229C312.237 208.457 312.031 208.648 311.847 208.805C311.663 208.961 311.429 209.16 311.146 209.401L309.529 210.721L308.551 209.465L312.656 206.27H314.208V221.478ZM329.889 212.766C329.889 213.86 329.789 214.939 329.591 216.004C329.406 217.054 329.059 218.013 328.549 218.879C328.052 219.731 327.343 220.413 326.422 220.924C325.514 221.435 324.344 221.691 322.913 221.691C322.628 221.691 322.296 221.669 321.913 221.627C321.544 221.598 321.239 221.549 320.999 221.478V219.88C321.552 220.065 322.175 220.157 322.87 220.157C323.862 220.157 324.678 219.994 325.316 219.667C325.967 219.341 326.486 218.9 326.869 218.347C327.252 217.779 327.528 217.126 327.698 216.387C327.868 215.635 327.967 214.846 327.996 214.023H327.868C327.556 214.506 327.103 214.924 326.507 215.28C325.925 215.62 325.174 215.791 324.253 215.791C322.947 215.791 321.892 215.393 321.084 214.598C320.289 213.789 319.893 212.653 319.893 211.19C319.893 210.125 320.091 209.209 320.488 208.442C320.899 207.676 321.466 207.086 322.19 206.675C322.913 206.263 323.763 206.057 324.742 206.057C325.706 206.057 326.578 206.305 327.358 206.802C328.137 207.285 328.754 208.023 329.208 209.017C329.662 209.997 329.889 211.247 329.889 212.766ZM324.742 207.633C323.862 207.633 323.139 207.924 322.572 208.506C322.019 209.088 321.743 209.976 321.743 211.169C321.743 212.148 321.977 212.922 322.445 213.49C322.926 214.044 323.664 214.321 324.657 214.321C325.337 214.321 325.925 214.186 326.422 213.916C326.918 213.632 327.301 213.277 327.571 212.851C327.854 212.425 327.996 211.985 327.996 211.531C327.996 210.92 327.875 210.317 327.634 209.72C327.393 209.124 327.031 208.627 326.55 208.229C326.067 207.832 325.465 207.633 324.742 207.633Z" fill="black"/>
<path d="M1.60156 266.739V265.377L6.70734 259.78C7.30654 259.124 7.8 258.554 8.18772 258.071C8.57544 257.581 8.86245 257.123 9.04876 256.695C9.2401 256.261 9.33577 255.807 9.33577 255.333C9.33577 254.788 9.20485 254.317 8.94301 253.918C8.68621 253.52 8.33374 253.212 7.8856 252.995C7.43746 252.778 6.93393 252.671 6.37501 252.671C5.78084 252.671 5.26221 252.794 4.81911 253.041C4.38103 253.283 4.04115 253.624 3.79946 254.062C3.5628 254.501 3.44447 255.015 3.44447 255.604H1.66198C1.66198 254.698 1.87095 253.901 2.28887 253.215C2.7068 252.529 3.2758 251.994 3.99584 251.611C4.72093 251.227 5.53412 251.037 6.43544 251.037C7.34179 251.037 8.14491 251.227 8.84483 251.611C9.54472 251.994 10.0936 252.511 10.4914 253.162C10.8892 253.813 11.088 254.536 11.088 255.333C11.088 255.903 10.9848 256.459 10.7784 257.005C10.577 257.544 10.2245 258.146 9.72097 258.811C9.22247 259.473 8.53012 260.28 7.64391 261.233L4.16955 264.954V265.075H11.3599V266.739H1.60156ZM19.5247 266.95C18.3867 266.95 17.4174 266.64 16.6168 266.02C15.8162 265.396 15.2044 264.49 14.7814 263.304C14.3584 262.115 14.1469 260.678 14.1469 258.994C14.1469 257.319 14.3584 255.889 14.7814 254.705C15.2095 253.514 15.8237 252.607 16.6244 251.982C17.4299 251.351 18.3968 251.037 19.5247 251.037C20.6526 251.037 21.6169 251.351 22.4174 251.982C23.2231 252.607 23.8374 253.514 24.2604 254.705C24.6884 255.889 24.9024 257.319 24.9024 258.994C24.9024 260.678 24.6909 262.115 24.2679 263.304C23.845 264.49 23.2332 265.396 22.4326 266.02C21.6319 266.64 20.6627 266.95 19.5247 266.95ZM19.5247 265.286C20.6526 265.286 21.5288 264.742 22.1531 263.653C22.7775 262.564 23.0896 261.011 23.0896 258.994C23.0896 257.652 22.9462 256.51 22.6592 255.567C22.3771 254.625 21.9693 253.906 21.4356 253.412C20.9069 252.917 20.2699 252.671 19.5247 252.671C18.4069 252.671 17.5332 253.223 16.9038 254.327C16.2744 255.426 15.9597 256.981 15.9597 258.994C15.9597 260.334 16.1006 261.474 16.3827 262.412C16.6647 263.351 17.07 264.064 17.5986 264.553C18.1325 265.041 18.7744 265.286 19.5247 265.286Z" fill="black"/>
<path d="M52.1152 266.739V265.377L57.2211 259.78C57.8203 259.124 58.3137 258.554 58.7015 258.071C59.0892 257.581 59.3762 257.123 59.5625 256.695C59.7539 256.261 59.8495 255.807 59.8495 255.333C59.8495 254.788 59.7185 254.317 59.4568 253.918C59.2 253.52 58.8474 253.212 58.3993 252.995C57.9512 252.778 57.4477 252.671 56.8888 252.671C56.2946 252.671 55.7759 252.794 55.3328 253.041C54.8948 253.283 54.5549 253.624 54.3133 254.062C54.0765 254.501 53.9582 255.015 53.9582 255.604H52.1757C52.1757 254.698 52.3847 253.901 52.8026 253.215C53.2206 252.529 53.7895 251.994 54.5096 251.611C55.2346 251.227 56.0479 251.037 56.9492 251.037C57.8555 251.037 58.6587 251.227 59.3586 251.611C60.0584 251.994 60.6073 252.511 61.005 253.162C61.4029 253.813 61.6018 254.536 61.6018 255.333C61.6018 255.903 61.4986 256.459 61.2922 257.005C61.0907 257.544 60.7383 258.146 60.2347 258.811C59.7362 259.473 59.0439 260.28 58.1576 261.233L54.6833 264.954V265.075H61.8738V266.739H52.1152ZM70.4312 251.249V266.739H68.5581V253.215H68.4674L64.691 255.726V253.819L68.5581 251.249H70.4312Z" fill="black"/>
<path d="M99.9707 266.739V265.377L105.077 259.78C105.676 259.124 106.169 258.554 106.557 258.071C106.945 257.581 107.232 257.123 107.418 256.695C107.609 256.261 107.705 255.807 107.705 255.333C107.705 254.788 107.574 254.317 107.312 253.918C107.055 253.52 106.703 253.212 106.255 252.995C105.807 252.778 105.303 252.671 104.744 252.671C104.15 252.671 103.631 252.794 103.188 253.041C102.75 253.283 102.41 253.624 102.169 254.062C101.932 254.501 101.814 255.015 101.814 255.604H100.031C100.031 254.698 100.24 253.901 100.658 253.215C101.076 252.529 101.645 251.994 102.365 251.611C103.09 251.227 103.903 251.037 104.805 251.037C105.711 251.037 106.514 251.227 107.214 251.611C107.914 251.994 108.463 252.511 108.861 253.162C109.258 253.813 109.457 254.536 109.457 255.333C109.457 255.903 109.354 256.459 109.148 257.005C108.946 257.544 108.594 258.146 108.09 258.811C107.592 259.473 106.899 260.28 106.013 261.233L102.539 264.954V265.075H109.729V266.739H99.9707ZM112.848 266.739V265.377L117.954 259.78C118.554 259.124 119.047 258.554 119.435 258.071C119.822 257.581 120.109 257.123 120.296 256.695C120.487 256.261 120.583 255.807 120.583 255.333C120.583 254.788 120.452 254.317 120.19 253.918C119.933 253.52 119.581 253.212 119.133 252.995C118.684 252.778 118.181 252.671 117.622 252.671C117.028 252.671 116.509 252.794 116.066 253.041C115.628 253.283 115.288 253.624 115.046 254.062C114.81 254.501 114.691 255.015 114.691 255.604H112.909C112.909 254.698 113.118 253.901 113.536 253.215C113.954 252.529 114.523 251.994 115.243 251.611C115.968 251.227 116.781 251.037 117.682 251.037C118.589 251.037 119.392 251.227 120.092 251.611C120.792 251.994 121.341 252.511 121.738 253.162C122.136 253.813 122.335 254.536 122.335 255.333C122.335 255.903 122.232 256.459 122.025 257.005C121.824 257.544 121.471 258.146 120.968 258.811C120.469 259.473 119.777 260.28 118.891 261.233L115.417 264.954V265.075H122.607V266.739H112.848Z" fill="black"/>
<path d="M150.484 266.739V265.377L155.589 259.78C156.188 259.124 156.682 258.554 157.07 258.071C157.458 257.581 157.745 257.123 157.931 256.695C158.123 256.261 158.218 255.807 158.218 255.333C158.218 254.788 158.087 254.317 157.825 253.918C157.568 253.52 157.216 253.212 156.768 252.995C156.32 252.778 155.816 252.671 155.257 252.671C154.662 252.671 154.144 252.794 153.701 253.041C153.263 253.283 152.924 253.624 152.682 254.062C152.445 254.501 152.327 255.015 152.327 255.604H150.544C150.544 254.698 150.753 253.901 151.172 253.215C151.589 252.529 152.158 251.994 152.878 251.611C153.603 251.227 154.416 251.037 155.318 251.037C156.224 251.037 157.027 251.227 157.726 251.611C158.427 251.994 158.976 252.511 159.374 253.162C159.771 253.813 159.97 254.536 159.97 255.333C159.97 255.903 159.867 256.459 159.661 257.005C159.459 257.544 159.106 258.146 158.603 258.811C158.105 259.473 157.413 260.28 156.526 261.233L153.051 264.954V265.075H160.242V266.739H150.484ZM168.588 266.95C167.591 266.95 166.702 266.779 165.922 266.437C165.147 266.093 164.53 265.617 164.071 265.007C163.618 264.392 163.372 263.678 163.331 262.866H165.234C165.274 263.365 165.446 263.797 165.749 264.159C166.051 264.517 166.445 264.795 166.935 264.992C167.423 265.188 167.964 265.286 168.558 265.286C169.222 265.286 169.811 265.171 170.326 264.939C170.839 264.706 171.242 264.384 171.534 263.97C171.825 263.557 171.971 263.078 171.971 262.533C171.971 261.964 171.831 261.462 171.549 261.028C171.267 260.59 170.854 260.246 170.31 260C169.766 259.753 169.101 259.629 168.316 259.629H167.078V257.965H168.316C168.93 257.965 169.47 257.854 169.932 257.632C170.402 257.41 170.766 257.098 171.028 256.695C171.295 256.291 171.428 255.816 171.428 255.272C171.428 254.747 171.312 254.292 171.081 253.903C170.85 253.514 170.521 253.212 170.098 252.995C169.681 252.778 169.188 252.671 168.619 252.671C168.085 252.671 167.581 252.769 167.107 252.965C166.64 253.156 166.257 253.437 165.96 253.805C165.663 254.168 165.502 254.606 165.476 255.121H163.663C163.694 254.309 163.938 253.598 164.396 252.987C164.854 252.372 165.454 251.893 166.194 251.551C166.939 251.208 167.758 251.037 168.648 251.037C169.605 251.037 170.425 251.23 171.111 251.619C171.796 252.002 172.322 252.509 172.689 253.139C173.058 253.77 173.241 254.45 173.241 255.181C173.241 256.053 173.012 256.797 172.554 257.412C172.1 258.027 171.484 258.455 170.703 258.692V258.811C171.68 258.974 172.442 259.389 172.991 260.06C173.54 260.726 173.815 261.55 173.815 262.533C173.815 263.375 173.585 264.132 173.128 264.802C172.675 265.467 172.055 265.992 171.27 266.375C170.484 266.759 169.591 266.95 168.588 266.95Z" fill="black"/>
<path d="M201 266.739V265.377L206.105 259.78C206.704 259.124 207.197 258.554 207.585 258.071C207.974 257.581 208.261 257.123 208.447 256.695C208.638 256.261 208.734 255.807 208.734 255.333C208.734 254.788 208.602 254.317 208.34 253.918C208.084 253.52 207.732 253.212 207.284 252.995C206.836 252.778 206.332 252.671 205.772 252.671C205.178 252.671 204.66 252.794 204.217 253.041C203.778 253.283 203.439 253.624 203.197 254.062C202.961 254.501 202.842 255.015 202.842 255.604H201.06C201.06 254.698 201.269 253.901 201.687 253.215C202.105 252.529 202.674 251.994 203.394 251.611C204.119 251.227 204.932 251.037 205.833 251.037C206.74 251.037 207.543 251.227 208.242 251.611C208.943 251.994 209.492 252.511 209.889 253.162C210.287 253.813 210.486 254.536 210.486 255.333C210.486 255.903 210.382 256.459 210.176 257.005C209.974 257.544 209.622 258.146 209.118 258.811C208.621 259.473 207.928 260.28 207.042 261.233L203.567 264.954V265.075H210.757V266.739H201ZM213.182 263.562V262.02L219.98 251.249H221.098V253.638H220.343L215.206 261.777V261.898H224.36V263.562H213.182ZM220.464 266.739V263.093V262.375V251.249H222.246V266.739H220.464Z" fill="black"/>
<path d="M251.514 266.739V265.377L256.618 259.78C257.218 259.124 257.711 258.554 258.099 258.071C258.487 257.581 258.774 257.123 258.961 256.695C259.152 256.261 259.248 255.807 259.248 255.333C259.248 254.788 259.116 254.317 258.854 253.918C258.598 253.52 258.245 253.212 257.797 252.995C257.349 252.778 256.846 252.671 256.286 252.671C255.692 252.671 255.173 252.794 254.731 253.041C254.292 253.283 253.953 253.624 253.711 254.062C253.474 254.501 253.356 255.015 253.356 255.604H251.573C251.573 254.698 251.782 253.901 252.201 253.215C252.618 252.529 253.187 251.994 253.908 251.611C254.632 251.227 255.446 251.037 256.347 251.037C257.254 251.037 258.057 251.227 258.756 251.611C259.456 251.994 260.005 252.511 260.403 253.162C260.8 253.813 261 254.536 261 255.333C261 255.903 260.896 256.459 260.69 257.005C260.488 257.544 260.136 258.146 259.632 258.811C259.135 259.473 258.442 260.28 257.555 261.233L254.081 264.954V265.075H261.271V266.739H251.514ZM269.224 266.95C268.339 266.95 267.54 266.775 266.83 266.421C266.12 266.068 265.551 265.585 265.123 264.968C264.695 264.353 264.461 263.653 264.421 262.866H266.233C266.304 263.566 266.621 264.147 267.185 264.606C267.754 265.06 268.435 265.286 269.224 265.286C269.86 265.286 270.423 265.137 270.916 264.84C271.415 264.542 271.806 264.135 272.088 263.614C272.375 263.09 272.518 262.497 272.518 261.837C272.518 261.162 272.369 260.559 272.072 260.029C271.78 259.496 271.378 259.074 270.863 258.766C270.35 258.459 269.764 258.303 269.105 258.298C268.63 258.292 268.145 258.365 267.646 258.517C267.148 258.664 266.737 258.853 266.415 259.084L264.663 258.873L265.599 251.249H273.636V252.913H267.17L266.627 257.48H266.717C267.035 257.229 267.432 257.02 267.911 256.853C268.389 256.687 268.888 256.603 269.406 256.603C270.353 256.603 271.196 256.831 271.936 257.284C272.682 257.733 273.265 258.348 273.688 259.13C274.116 259.911 274.33 260.804 274.33 261.807C274.33 262.796 274.109 263.678 273.665 264.454C273.228 265.226 272.623 265.836 271.854 266.285C271.083 266.728 270.207 266.95 269.224 266.95Z" fill="black"/>
<path d="M306.451 266.739V265.377L311.557 259.78C312.155 259.124 312.65 258.554 313.037 258.071C313.425 257.581 313.712 257.123 313.898 256.695C314.089 256.261 314.185 255.807 314.185 255.333C314.185 254.788 314.054 254.317 313.792 253.918C313.535 253.52 313.183 253.212 312.735 252.995C312.287 252.778 311.783 252.671 311.225 252.671C310.631 252.671 310.111 252.794 309.668 253.041C309.231 253.283 308.89 253.624 308.649 254.062C308.412 254.501 308.294 255.015 308.294 255.604H306.511C306.511 254.698 306.72 253.901 307.138 253.215C307.556 252.529 308.125 251.994 308.845 251.611C309.57 251.227 310.383 251.037 311.285 251.037C312.191 251.037 312.994 251.227 313.695 251.611C314.394 251.994 314.943 252.511 315.34 253.162C315.738 253.813 315.937 254.536 315.937 255.333C315.937 255.903 315.833 256.459 315.627 257.005C315.427 257.544 315.073 258.146 314.571 258.811C314.072 259.473 313.38 260.28 312.493 261.233L309.018 264.954V265.075H316.21V266.739H306.451ZM324.465 266.95C323.831 266.941 323.195 266.82 322.561 266.587C321.927 266.355 321.347 265.965 320.824 265.416C320.3 264.86 319.88 264.112 319.562 263.168C319.246 262.221 319.086 261.031 319.086 259.598C319.086 258.227 319.215 257.012 319.472 255.953C319.728 254.888 320.102 253.994 320.59 253.268C321.078 252.536 321.668 251.982 322.358 251.604C323.052 251.226 323.835 251.037 324.707 251.037C325.572 251.037 326.343 251.21 327.017 251.559C327.698 251.901 328.251 252.38 328.679 252.995C329.107 253.61 329.385 254.319 329.509 255.121H327.667C327.496 254.425 327.163 253.847 326.67 253.389C326.177 252.93 325.522 252.701 324.707 252.701C323.508 252.701 322.564 253.223 321.874 254.267C321.189 255.31 320.844 256.775 320.84 258.661H320.959C321.242 258.232 321.576 257.866 321.964 257.564C322.358 257.257 322.79 257.02 323.263 256.853C323.736 256.687 324.237 256.603 324.767 256.603C325.653 256.603 326.464 256.825 327.199 257.269C327.934 257.708 328.523 258.315 328.966 259.092C329.41 259.863 329.63 260.748 329.63 261.747C329.63 262.705 329.416 263.582 328.988 264.378C328.56 265.171 327.96 265.8 327.183 266.27C326.414 266.733 325.507 266.961 324.465 266.95ZM324.465 265.286C325.099 265.286 325.668 265.128 326.172 264.81C326.679 264.492 327.081 264.066 327.372 263.532C327.67 262.997 327.819 262.402 327.819 261.747C327.819 261.106 327.675 260.523 327.388 260C327.106 259.47 326.715 259.048 326.217 258.737C325.724 258.424 325.16 258.267 324.525 258.267C324.046 258.267 323.601 258.363 323.189 258.554C322.775 258.741 322.412 258.999 322.1 259.327C321.793 259.654 321.552 260.029 321.375 260.453C321.199 260.872 321.111 261.313 321.111 261.777C321.111 262.392 321.254 262.967 321.542 263.501C321.834 264.036 322.231 264.468 322.735 264.795C323.243 265.123 323.82 265.286 324.465 265.286Z" fill="black"/>
<path d="M1.60156 306.675V305.313L6.70734 299.717C7.30654 299.061 7.8 298.491 8.18772 298.008C8.57544 297.518 8.86245 297.06 9.04876 296.631C9.2401 296.197 9.33577 295.743 9.33577 295.269C9.33577 294.725 9.20485 294.254 8.94301 293.854C8.68621 293.456 8.33374 293.149 7.8856 292.932C7.43747 292.715 6.93393 292.607 6.37501 292.607C5.78084 292.607 5.26221 292.731 4.81911 292.977C4.38103 293.219 4.04115 293.56 3.79946 293.998C3.5628 294.437 3.44447 294.951 3.44447 295.541H1.66198C1.66198 294.634 1.87095 293.837 2.28887 293.151C2.7068 292.466 3.2758 291.931 3.99584 291.547C4.72093 291.164 5.53412 290.974 6.43544 290.974C7.34179 290.974 8.14491 291.164 8.84483 291.547C9.54473 291.931 10.0936 292.447 10.4914 293.098C10.8892 293.749 11.088 294.472 11.088 295.269C11.088 295.839 10.9848 296.396 10.7784 296.941C10.577 297.481 10.2245 298.082 9.72097 298.748C9.22247 299.41 8.53012 300.216 7.64391 301.169L4.16955 304.89V305.011H11.3599V306.675H1.60156ZM14.9627 306.675L21.8812 292.97V292.849H13.9053V291.185H23.8148V292.94L16.9265 306.675H14.9627Z" fill="black"/>
<path d="M50.7852 306.675V305.313L55.8911 299.717C56.4902 299.061 56.9836 298.491 57.3714 298.008C57.7592 297.518 58.0462 297.06 58.2324 296.631C58.4238 296.197 58.5194 295.743 58.5194 295.269C58.5194 294.725 58.3885 294.254 58.1267 293.854C57.8699 293.456 57.5174 293.149 57.0692 292.932C56.6211 292.715 56.1176 292.607 55.5587 292.607C54.9645 292.607 54.4458 292.731 54.0028 292.977C53.5648 293.219 53.2249 293.56 52.9832 293.998C52.7464 294.437 52.6281 294.951 52.6281 295.541H50.8456C50.8456 294.634 51.0546 293.837 51.4725 293.151C51.8905 292.466 52.4594 291.931 53.1795 291.547C53.9045 291.164 54.7178 290.974 55.6191 290.974C56.5254 290.974 57.3286 291.164 58.0285 291.547C58.7284 291.931 59.2772 292.447 59.675 293.098C60.0728 293.749 60.2717 294.472 60.2717 295.269C60.2717 295.839 60.1685 296.396 59.9621 296.941C59.7606 297.481 59.4082 298.082 58.9046 298.748C58.4061 299.41 57.7138 300.216 56.8276 301.169L53.3533 304.89V305.011H60.5437V306.675H50.7852ZM68.6177 306.887C67.5804 306.887 66.664 306.703 65.8684 306.334C65.0778 305.962 64.461 305.451 64.018 304.8C63.5749 304.143 63.3558 303.398 63.3609 302.56C63.3558 301.906 63.4843 301.3 63.746 300.745C64.0079 300.186 64.3655 299.72 64.8186 299.346C65.2768 298.968 65.7878 298.728 66.3519 298.628V298.536C65.6117 298.345 65.0225 297.929 64.5844 297.289C64.1464 296.643 63.9298 295.91 63.9349 295.087C63.9298 294.302 64.1287 293.597 64.5316 292.977C64.9344 292.357 65.4883 291.868 66.1933 291.51C66.9031 291.152 67.7114 290.974 68.6177 290.974C69.514 290.974 70.3146 291.152 71.0195 291.51C71.7244 291.868 72.2784 292.357 72.6811 292.977C73.0891 293.597 73.2955 294.302 73.3005 295.087C73.2955 295.91 73.0714 296.643 72.6284 297.289C72.1902 297.929 71.6086 298.345 70.8836 298.536V298.628C71.4425 298.728 71.946 298.968 72.3941 299.346C72.8423 299.72 73.1998 300.186 73.4666 300.745C73.7336 301.3 73.8695 301.906 73.8746 302.56C73.8695 303.398 73.6429 304.143 73.1948 304.8C72.7517 305.451 72.1349 305.962 71.3444 306.334C70.5588 306.703 69.6499 306.887 68.6177 306.887ZM68.6177 305.223C69.3176 305.223 69.9219 305.11 70.4305 304.882C70.9389 304.656 71.3318 304.335 71.6086 303.922C71.8857 303.508 72.0266 303.025 72.0316 302.47C72.0266 301.886 71.8756 301.368 71.5785 300.919C71.2814 300.47 70.8761 300.118 70.3624 299.861C69.8538 299.603 69.2722 299.475 68.6177 299.475C67.9581 299.475 67.3689 299.603 66.8504 299.861C66.3367 300.118 65.9314 300.47 65.6343 300.919C65.3422 301.368 65.1987 301.886 65.2037 302.47C65.1987 303.025 65.3321 303.508 65.6041 303.922C65.881 304.335 66.2764 304.656 66.7899 304.882C67.3035 305.11 67.9127 305.223 68.6177 305.223ZM68.6177 297.871C69.1716 297.871 69.6625 297.76 70.0906 297.538C70.5235 297.317 70.8634 297.007 71.1102 296.609C71.3569 296.209 71.4828 295.743 71.4878 295.208C71.4828 294.684 71.3594 294.228 71.1177 293.84C70.8761 293.446 70.5412 293.143 70.1132 292.932C69.6851 292.715 69.1866 292.607 68.6177 292.607C68.0386 292.607 67.5326 292.715 67.0996 292.932C66.6665 293.143 66.3317 293.446 66.095 293.84C65.8584 294.228 65.7425 294.684 65.7476 295.208C65.7425 295.743 65.8609 296.209 66.1026 296.609C66.3493 297.007 66.6892 297.317 67.1222 297.538C67.5553 297.76 68.0538 297.871 68.6177 297.871Z" fill="black"/>
<path d="M101.301 306.675V305.313L106.407 299.717C107.006 299.061 107.499 298.491 107.887 298.008C108.275 297.518 108.562 297.06 108.748 296.631C108.939 296.197 109.035 295.743 109.035 295.269C109.035 294.725 108.904 294.254 108.642 293.854C108.386 293.456 108.033 293.149 107.585 292.932C107.137 292.715 106.633 292.607 106.074 292.607C105.48 292.607 104.961 292.731 104.518 292.977C104.08 293.219 103.74 293.56 103.499 293.998C103.262 294.437 103.144 294.951 103.144 295.541H101.361C101.361 294.634 101.57 293.837 101.988 293.151C102.406 292.466 102.975 291.931 103.695 291.547C104.42 291.164 105.233 290.973 106.135 290.973C107.041 290.973 107.844 291.164 108.544 291.547C109.244 291.931 109.793 292.447 110.191 293.098C110.588 293.749 110.787 294.472 110.787 295.269C110.787 295.839 110.684 296.395 110.478 296.941C110.276 297.48 109.924 298.082 109.42 298.748C108.922 299.409 108.229 300.216 107.343 301.169L103.869 304.89V305.011H111.059V306.675H101.301ZM119.103 290.973C119.738 290.977 120.372 291.099 121.006 291.336C121.641 291.572 122.22 291.967 122.744 292.516C123.267 293.061 123.688 293.804 124.005 294.747C124.322 295.69 124.481 296.872 124.481 298.295C124.481 299.672 124.35 300.894 124.088 301.963C123.831 303.026 123.459 303.925 122.97 304.656C122.487 305.386 121.898 305.942 121.203 306.32C120.513 306.698 119.733 306.887 118.861 306.887C117.995 306.887 117.222 306.715 116.543 306.373C115.868 306.024 115.314 305.544 114.881 304.929C114.453 304.308 114.179 303.589 114.058 302.772H115.901C116.067 303.483 116.397 304.071 116.89 304.534C117.389 304.994 118.046 305.223 118.861 305.223C120.055 305.223 120.996 304.701 121.686 303.657C122.381 302.614 122.729 301.139 122.729 299.232H122.608C122.326 299.656 121.991 300.022 121.603 300.329C121.215 300.637 120.785 300.874 120.312 301.04C119.838 301.206 119.335 301.29 118.801 301.29C117.915 301.29 117.102 301.071 116.361 300.631C115.626 300.188 115.037 299.58 114.594 298.809C114.156 298.033 113.937 297.145 113.937 296.147C113.937 295.199 114.148 294.331 114.571 293.544C114.999 292.753 115.599 292.122 116.369 291.654C117.144 291.185 118.056 290.957 119.103 290.973ZM119.103 292.637C118.469 292.637 117.897 292.796 117.389 293.113C116.885 293.426 116.485 293.85 116.188 294.384C115.896 294.914 115.75 295.501 115.75 296.147C115.75 296.792 115.891 297.379 116.173 297.909C116.46 298.434 116.85 298.852 117.343 299.164C117.842 299.472 118.408 299.626 119.043 299.626C119.521 299.626 119.967 299.532 120.38 299.345C120.792 299.154 121.153 298.894 121.46 298.567C121.772 298.234 122.016 297.858 122.192 297.439C122.368 297.016 122.457 296.575 122.457 296.116C122.457 295.512 122.311 294.943 122.019 294.415C121.732 293.885 121.334 293.456 120.825 293.129C120.322 292.801 119.748 292.637 119.103 292.637Z" fill="black"/>
<path d="M157.039 306.887C156.042 306.887 155.154 306.715 154.374 306.373C153.598 306.03 152.981 305.553 152.524 304.943C152.07 304.328 151.823 303.615 151.783 302.803H153.687C153.727 303.302 153.898 303.733 154.2 304.095C154.502 304.453 154.898 304.732 155.386 304.929C155.874 305.124 156.416 305.223 157.01 305.223C157.675 305.223 158.264 305.107 158.777 304.875C159.291 304.642 159.694 304.32 159.985 303.906C160.278 303.494 160.424 303.014 160.424 302.47C160.424 301.9 160.283 301.398 160.001 300.964C159.719 300.526 159.306 300.183 158.762 299.937C158.218 299.689 157.554 299.565 156.768 299.565H155.529V297.901H156.768C157.382 297.901 157.921 297.791 158.385 297.568C158.853 297.346 159.218 297.035 159.48 296.631C159.746 296.228 159.88 295.753 159.88 295.208C159.88 294.684 159.764 294.228 159.532 293.84C159.3 293.451 158.973 293.149 158.551 292.932C158.132 292.715 157.639 292.607 157.07 292.607C156.537 292.607 156.033 292.706 155.56 292.901C155.091 293.093 154.709 293.374 154.411 293.741C154.115 294.105 153.953 294.543 153.927 295.058H152.116C152.146 294.246 152.389 293.535 152.848 292.924C153.307 292.309 153.905 291.83 154.645 291.487C155.391 291.144 156.208 290.974 157.1 290.974C158.058 290.974 158.878 291.167 159.562 291.555C160.247 291.939 160.773 292.446 161.142 293.076C161.508 293.707 161.692 294.387 161.692 295.118C161.692 295.99 161.463 296.734 161.005 297.349C160.551 297.964 159.935 298.391 159.154 298.628V298.748C160.131 298.91 160.894 299.326 161.443 299.997C161.992 300.662 162.266 301.486 162.266 302.47C162.266 303.311 162.038 304.069 161.579 304.738C161.126 305.404 160.506 305.928 159.721 306.312C158.936 306.695 158.042 306.887 157.039 306.887ZM170.402 306.887C169.262 306.887 168.293 306.577 167.493 305.956C166.693 305.332 166.081 304.427 165.657 303.241C165.235 302.052 165.023 300.614 165.023 298.93C165.023 297.256 165.235 295.826 165.657 294.641C166.085 293.451 166.699 292.543 167.501 291.919C168.307 291.288 169.273 290.974 170.402 290.974C171.529 290.974 172.493 291.288 173.294 291.919C174.1 292.543 174.714 293.451 175.137 294.641C175.565 295.826 175.779 297.256 175.779 298.93C175.779 300.614 175.567 302.052 175.145 303.241C174.722 304.427 174.109 305.332 173.309 305.956C172.509 306.577 171.54 306.887 170.402 306.887ZM170.402 305.223C171.529 305.223 172.405 304.678 173.03 303.59C173.653 302.501 173.966 300.947 173.966 298.93C173.966 297.588 173.822 296.446 173.535 295.504C173.253 294.561 172.846 293.842 172.312 293.349C171.783 292.853 171.146 292.607 170.402 292.607C169.284 292.607 168.409 293.159 167.78 294.263C167.15 295.363 166.836 296.917 166.836 298.93C166.836 300.271 166.977 301.41 167.259 302.349C167.541 303.287 167.946 304.001 168.475 304.489C169.008 304.978 169.651 305.223 170.402 305.223Z" fill="black"/>
<path d="M208.883 306.887C207.886 306.887 206.998 306.715 206.218 306.373C205.441 306.03 204.825 305.553 204.367 304.943C203.914 304.328 203.667 303.615 203.627 302.803H205.531C205.57 303.302 205.742 303.733 206.044 304.095C206.345 304.453 206.742 304.732 207.229 304.929C207.717 305.124 208.26 305.223 208.854 305.223C209.518 305.223 210.107 305.107 210.62 304.875C211.135 304.642 211.538 304.32 211.829 303.906C212.121 303.494 212.268 303.014 212.268 302.47C212.268 301.9 212.127 301.398 211.845 300.964C211.563 300.526 211.15 300.183 210.606 299.937C210.062 299.689 209.398 299.565 208.612 299.565H207.373V297.901H208.612C209.226 297.901 209.764 297.791 210.228 297.568C210.696 297.346 211.062 297.035 211.324 296.631C211.59 296.228 211.724 295.753 211.724 295.208C211.724 294.684 211.608 294.228 211.376 293.84C211.144 293.451 210.817 293.149 210.394 292.932C209.976 292.715 209.483 292.607 208.914 292.607C208.381 292.607 207.877 292.706 207.404 292.901C206.934 293.093 206.553 293.374 206.255 293.741C205.959 294.105 205.796 294.543 205.771 295.058H203.959C203.99 294.246 204.233 293.535 204.692 292.924C205.15 292.309 205.749 291.83 206.489 291.487C207.235 291.144 208.052 290.974 208.944 290.974C209.901 290.974 210.722 291.167 211.406 291.555C212.091 291.939 212.617 292.446 212.985 293.076C213.352 293.707 213.536 294.387 213.536 295.118C213.536 295.99 213.307 296.734 212.848 297.349C212.395 297.964 211.778 298.391 210.998 298.628V298.748C211.975 298.91 212.738 299.326 213.287 299.997C213.836 300.662 214.11 301.486 214.11 302.47C214.11 303.311 213.881 304.069 213.423 304.738C212.969 305.404 212.35 305.928 211.564 306.312C210.78 306.695 209.885 306.887 208.883 306.887ZM222.638 291.185V306.675H220.765V293.151H220.674L216.898 295.662V293.756L220.765 291.185H222.638Z" fill="black"/>
</svg>
